<svg xmlns="http://www.w3.org/2000/svg" width="1149.994" height="627.495" viewBox="0 0 1149.994 627.495"><g transform="translate(899 -364)"><g transform="translate(-899 363.965)"><path d="M1162.81,718.44A188.546,188.546,0,0,1,1146.4,750a135.79,135.79,0,0,1-9.94,13.67.7.7,0,0,1-.11.12H25l.15-.12c1-.78,6.87-5.53,16-13.67,6.55-5.83,14.77-13.41,24-22.53,75.49-74.25,220.5-250,99.73-411-112.27-149.67,8.61-176.83,88.35-180a227.81,227.81,0,0,1,89.86,14.69c36.84,14,104.17,35.46,191.89,45.3,2.88.32,5.78.64,8.72.93a840.112,840.112,0,0,0,139.78,2.54h0c1.37-.08,2.75-.18,4.14-.28A830.612,830.612,0,0,0,824.34,178.5c2.91-.71,5.78-1.38,8.64-2.05,149.63-34.62,287.57,83.37,253.08,216.71-12.75,49.32-9.51,101.89,33,144.42C1188.66,607,1180.23,675.37,1162.81,718.44Z" transform="translate(-25 -136.26)" fill="#007bff" opacity="0.1"/><path d="M1162.81,718.44A188.546,188.546,0,0,1,1146.4,750a135.79,135.79,0,0,1-9.94,13.67H25.15c1-.78,6.87-5.53,16-13.67,6.55-5.83,14.77-13.41,24-22.53l117.13-24.2a22.783,22.783,0,0,1,4.6-.47l124.87-.18h.13l61.85-.08h.14l52.2-.06h69.17l143.42-.2h61.71L725,702h8.14l71.64-.1h33.88l82.75-.11h24.64l78.38-.11,66.16-.08a23.452,23.452,0,0,1,5.47.65Z" transform="translate(-25 -136.26)" fill="#454b69"/><path d="M41.15,750H1146.4a135.833,135.833,0,0,1-9.94,13.67H25.15C26.13,762.84,32,758.09,41.15,750Z" transform="translate(-25 -136.26)" fill="rgba(0,0,0,0)"/><path d="M41.15,750H1146.4a135.833,135.833,0,0,1-9.94,13.67H25.15C26.13,762.84,32,758.09,41.15,750Z" transform="translate(-25 -136.26)" opacity="0.4"/><path d="M568,387c1.09,6.19,1.67,13-1.49,18.4-4.21,7.24-13.39,9.55-21.6,11.19l-28.5,5.7c-1.94.39-4,.83-5.45,2.16-1.71,1.53-2.29,3.95-2.54,6.23-1.15,10.32,2.5,20.49,5.83,30.32,6.73,19.91,12.38,40.24,20.89,59.45S555.33,558,572,570.84s38.73,19.68,59.14,14.66c17.78-4.37,32.36-16.92,44.93-30.23,10.37-11,20.07-23,25.1-37.27,3.47-9.8,4.6-20.24,5.69-30.58l5.06-47.56c.79-7.44,1.31-15.81-3.52-21.52-2.12-2.51-5-4.18-7.94-5.73C689.52,406.8,678,402,667.82,395s-19.21-16.64-22.3-28.6c-1.85-7.18-1.52-15-4.67-21.69-3.52-7.5-11-12.58-19-14.81s-16.44-1.93-24.68-1-40,3.31-43.41,12.6c-1.83,5,5.76,15.73,7.56,20.65A144.167,144.167,0,0,1,568,387Z" transform="translate(-25 -136.26)" fill="#efb7b9"/><path d="M568,387c1.09,6.19,1.67,13-1.49,18.4-4.21,7.24-13.39,9.55-21.6,11.19l-28.5,5.7c-1.94.39-4,.83-5.45,2.16-1.71,1.53-2.29,3.95-2.54,6.23-1.15,10.32,2.5,20.49,5.83,30.32,6.73,19.91,12.38,40.24,20.89,59.45S555.33,558,572,570.84s38.73,19.68,59.14,14.66c17.78-4.37,32.36-16.92,44.93-30.23,10.37-11,20.07-23,25.1-37.27,3.47-9.8,4.6-20.24,5.69-30.58l5.06-47.56c.79-7.44,1.31-15.81-3.52-21.52-2.12-2.51-5-4.18-7.94-5.73C689.52,406.8,678,402,667.82,395s-19.21-16.64-22.3-28.6c-1.85-7.18-1.52-15-4.67-21.69-3.52-7.5-11-12.58-19-14.81s-16.44-1.93-24.68-1-40,3.31-43.41,12.6c-1.83,5,5.76,15.73,7.56,20.65A144.167,144.167,0,0,1,568,387Z" transform="translate(-25 -136.26)" opacity="0.1"/><path d="M636.59,495.74l16.71-35.38c7.83-16.58,15.83-34,15-52.31-.16-3.64-.2-8.19,3-9.84a8.58,8.58,0,0,1,4.39-.56,177.591,177.591,0,0,1,51.51,10.42c3.21,1.16,6.5,2.5,8.75,5.06s3.16,6,3.93,9.3a271.525,271.525,0,0,1,5.73,33.87c3,28.22,1.51,56.69,0,85l-4.44,86.43a8.26,8.26,0,0,1-.73,3.56c-1.1,2-3.58,2.67-5.81,3.05-8.59,1.47-17.37,1.17-26.07.84-61.2-2.32-122.72-5.88-183.52,1.54q.41-13.49-.43-27c-2.41-38.89-12.49-76.83-22.39-114.51-5.77-22-11.36-46-2.07-66.73a28.59,28.59,0,0,1,5.79-8.82c3.95-3.87,9.34-5.91,14.68-7.37a93.43,93.43,0,0,1,28.29-3.2C614.84,552.64,631.26,507,636.59,495.74Z" transform="translate(-25 -136.26)" fill="#fff"/><path d="M674,480.962c3-13.4,7.85-27.032,5.78-40.612-2.86-18.75,1.81-15.15,0-34.03-.31-3.3-.11-7.16,2.54-9.15,1.64-1.23,3.8-1.4,5.84-1.52,18.86-1.12,39.58-.91,54.19,11.06,4.45,3.64,8.06,8.19,12.41,11.94,10.36,9,25,13.58,31.65,25.53,2.32,4.16,3.43,8.87,5.05,13.35,3.82,10.6,10.43,19.92,17,29.09-6.37,26.88-13.69,53.78-20.06,80.66-3.73,15.77-7.49,31.6-13.35,46.7-3.84,9.9-8.67,20-7.49,30.6.47,4.17,1.86,8.16,3.07,12.18a140,140,0,0,1,5.89,43.53l-285.34.7c13.67-19.6,17.68-43.64,16.29-67.49-.67-11.43-3.25-22.93-9-32.82-9.06-15.5-25-25.6-40.71-34.25-11-6-22.81,27.76-34.7,23.89,1.92-13.58,2.8-66,2-79.67-.26-4.48-.66-9.08.72-13.36.94-2.93,2.67-5.55,3.84-8.4,4.69-11.41.22-26,7.8-35.71,5.24-6.75,14.43-8.67,21.9-12.83,7.67-4.28,13.6-11,20.28-16.74A90.19,90.19,0,0,1,525.76,403a58.139,58.139,0,0,1,8.81,26c.51,5.81,16.22,35.389,19.43,42.629,3.663,8.272,8,26.667,22.667,39.021,12,14.312,20,28.979,45.333,34.312,18.667-6.667,23-15.333,36-28S673.01,485.277,674,480.962Z" transform="translate(-25 -136.26)" fill="#007bff"/><path d="M624.667,547.95c11.28.71,26.337-13.518,30.667-23.988,6.225-14.924,20.829-21.582,24.447-37.342,3-13.4,4.61-26.56,2.54-40.14-2.86-18.75-.73-21.28-2.54-40.16-.31-3.3-.11-7.16,2.54-9.15,1.64-1.23,3.8-1.4,5.84-1.52,18.86-1.12,39.58-.91,54.19,11.06,4.45,3.64,8.06,8.19,12.41,11.94,10.36,9,25,13.58,31.65,25.53,2.32,4.16,3.43,8.87,5.05,13.35,3.82,10.6,10.43,19.92,17,29.09-6.37,26.88-13.69,53.78-20.06,80.66-3.73,15.77-7.49,31.6-13.35,46.7-3.84,9.9-8.67,20-7.49,30.6.47,4.17,1.86,8.16,3.07,12.18a140,140,0,0,1,5.89,43.53l-285.34.7c13.67-19.6,17.68-43.64,16.29-67.49-.67-11.43-3.25-22.93-9-32.82-9.06-15.5-25-25.6-40.71-34.25-11-6-22.81,27.76-34.7,23.89,1.92-13.58,2.8-66,2-79.67-.26-4.48-.66-9.08.72-13.36.94-2.93,2.67-5.55,3.84-8.4,4.69-11.41.22-26,7.8-35.71,5.24-6.75,14.43-8.67,21.9-12.83,7.67-4.28,13.6-11,20.28-16.74A90.19,90.19,0,0,1,525.76,403a58.139,58.139,0,0,1,8.81,26c.51,5.81.14,11.7.95,17.48,1.11,7.83,11.27,18.242,14.48,25.482,13.37,30.19,17.06,32.458,24,38.688S615.347,548.39,624.667,547.95Z" transform="translate(-25 -135.26)" opacity="0.1"/><ellipse cx="77.72" cy="95.72" rx="77.72" ry="95.72" transform="translate(504.19 57.03)" fill="#efb7b9"/><path d="M691.1,652.18c-15.45-2.45-31.13-7.18-46.45-4-8.88,1.84-17,6.26-24.38,11.6,4.06,3.25,8.8,6.15,11.38,10.67a42,42,0,0,1,3.58,9.87c1.62,6,3.25,12.12,3.5,18.36s-1,12.74-4.72,17.77c19.48,1.92,38.36-2.88,57.36-7.57a15.71,15.71,0,0,0,6.07-2.45c3-2.36,3.88-6.56,3.9-10.39,0-6.84-1.92-13.51-3.87-20.07C695.15,668.1,693.43,660,691.1,652.18Z" transform="translate(-25 -136.26)" fill="#fff"/><path d="M795.42,483.51c7.67,1,13.62,7.19,18,13.55,12.29,17.7,17.59,39.16,23.49,59.89a797.144,797.144,0,0,0,25.87,76.12,114.559,114.559,0,0,0,7.76,16.7c2.47,4.13,5.47,8.1,6.56,12.79,2.64,11.34-6.71,22-16.46,28.32A65.143,65.143,0,0,1,843.79,699c-5.82,1.74-11.89,2.4-17.92,3.06l-55.51,6c-25.55,2.78-51.33,5.56-76.89,2.88-1.61-5.6,1.55-9.56,1.32-15.39-.16-4.17-2-8.05-3.64-11.89a76,76,0,0,1-5.93-21.51c-.29-2.73-.39-5.53-1.43-8.07s-3.27-4.82-6-5c15-1.49,26.39-4.32,41.39-5.82,5.57-.56,11.36-1.19,16.11-4.15,5.89-3.67,9.19-10.29,11.81-16.71,6.49-15.9,10.67-33.42,7.26-50.26-2.8-13.81-10.61-26.67-10.57-40.76,0-8.39,2.86-16.52,6.24-24.2,3.58-8.12,8.25-16.42,16.11-20.54S786.55,482.31,795.42,483.51Z" transform="translate(-25 -136.26)" fill="#007bff"/><path d="M795.42,483.51c7.67,1,13.62,7.19,18,13.55,12.29,17.7,17.59,39.16,23.49,59.89a797.144,797.144,0,0,0,25.87,76.12,114.559,114.559,0,0,0,7.76,16.7c2.47,4.13,5.47,8.1,6.56,12.79,2.64,11.34-6.71,22-16.46,28.32A65.143,65.143,0,0,1,843.79,699c-5.82,1.74-11.89,2.4-17.92,3.06l-55.51,6c-25.55,2.78-51.33,5.56-76.89,2.88-1.61-5.6,1.55-9.56,1.32-15.39-.16-4.17-2-8.05-3.64-11.89a76,76,0,0,1-5.93-21.51c-.29-2.73-.39-5.53-1.43-8.07s-3.27-4.82-6-5c15-1.49,26.39-4.32,41.39-5.82,5.57-.56,11.36-1.19,16.11-4.15,5.89-3.67,9.19-10.29,11.81-16.71,6.49-15.9,10.67-33.42,7.26-50.26-2.8-13.81-10.61-26.67-10.57-40.76,0-8.39,2.86-16.52,6.24-24.2,3.58-8.12,8.25-16.42,16.11-20.54S786.55,482.31,795.42,483.51Z" transform="translate(-25 -136.26)" opacity="0.08"/><path d="M447.81,470.52c3.63-8.62,7.32-17.52,7.42-26.87.11-10.11-4-19.71-7.14-29.31a169.487,169.487,0,0,1-7.71-36.19,5,5,0,0,1,.5-3.47c.83-1.17,2.43-1.41,3.84-1.72,6.92-1.58,12.15-7.17,16.47-12.8A140.341,140.341,0,0,0,478.05,332c3.31-7.37,7.79-16.36,15.87-16.43a458.365,458.365,0,0,1-12.08,45.25c8.45-2.16,16.48-5.3,24.93-7.46a14.93,14.93,0,0,1,5.12-.68c5.06.53,8.16,7.38,5.22,11.53,4.13,4.84,11,6.14,16.4,9.46s9.28,11.54,4.48,15.71c-.94.81-2.13,1.38-2.81,2.42-2.32,3.58,3.36,7.69,2.89,11.93-.38,3.47-4.83,5.09-8.2,4.17s-6-3.44-9-5.29-6.92-3-9.83-1.08c-.78,9.41-1.62,19-5.69,27.57-1.49,3.13-3.4,6.06-4.6,9.31a45.883,45.883,0,0,0-2.12,10.93L495,482.53C477.68,486,462.15,480.81,447.81,470.52Z" transform="translate(-25 -136.26)" fill="#efb7b9"/><path d="M443.58,500.27l-3.19-21.59a35.094,35.094,0,0,1-.51-5.32c0-5,2.2-9.77,4.33-14.32,17.65,8.24,36.73,11.17,56.2,11.18,2.57,0,5.5-.24,7.1-2.25,3.31,3.81,3.41,9.94,2,14.78s-4.12,9.2-5.92,13.92c-.91,2.39-1.65,5-3.39,6.84-2.7,2.91-7.08,3.41-11.06,3.39a70.706,70.706,0,0,1-12.48-1.19C466,503.73,454.24,498.36,443.58,500.27Z" transform="translate(-25 -136.26)" fill="#fff"/><path d="M509.41,499.39q-20.55-2.34-40.83-6.6c-6.63-1.39-13.32-2.94-20.08-2.67-4.4.18-9.13,1.06-13-1.12,3.77,12.83,4,26.35-.51,38.94-2.67,7.5-6.74,14.49-8.7,22.21-4.08,16.15,1.52,33.76-3.58,49.62a12.56,12.56,0,0,1-3.08,5.52c-1.56,1.43-3.69,2.17-5.13,3.72-2.12,2.28-2.25,5.71-2.26,8.82l-.09,27.55c-.06,17.54.17,36.14,9.43,51,10.56,17,32.79,25.81,52.14,20.64a38.761,38.761,0,0,0,14.16-6.93c6.72-5.34,11-13.06,15.19-20.58,5-9,10-18.2,11.61-28.33,1.14-7.17.5-14.49-.32-21.7-4.52-40-14.33-79.66-12.22-119.81a36.31,36.31,0,0,1,7.27-20.28Z" transform="translate(-25 -136.26)" fill="#007bff"/><path d="M566.67,665.39c-6.95.4-13.95.8-20.87,0-5-.6-9.88-1.83-14.84-2.67A95.11,95.11,0,0,0,454.37,684c-3.84,3.28-7.72,8.31-5.6,12.9,2.28,4.94,9.25,4.8,14.62,3.88a44,44,0,0,0-15,11.73c-1.5,1.83-2.92,4-2.63,6.37.61,4.95,7.33,5.85,12.3,5.42-1.62,1.74-.53,4.82,1.53,6s4.62.94,6.95.51a51.519,51.519,0,0,0,14.76-5.11c-.94,2.45.69,5.32,3,6.54s5.12,1.13,7.71.71c12.22-2,22.42-10.5,34.34-13.84,19.06-5.33,39,3.17,58.81,3.77,6.2.19,12.56-.44,18.21-3,6.93-3.15,12.52-9.06,19.84-11.16,8.13-2.32,17.46.35,24.9-3.66,5.41-2.91.53-25.34-.85-29.66-2.53-7.9-5.07-13.14-13.5-13.94C612.43,659.37,588.16,664.15,566.67,665.39Z" transform="translate(-25 -136.26)" fill="#efb7b9"/><path d="M619.88,659.27s32.29,27.33,13.66,57.15l36-12.43V677.9c0-1.24-13.67-19.87-13.67-19.87l-16.15-2.49Z" transform="translate(-25 -136.26)" fill="#fff"/><path d="M256.79,521.32H268.9a25,25,0,0,1,25,25v37.11H231.79V546.32A25,25,0,0,1,256.79,521.32Z" fill="#3f3d56"/><path d="M256.79,521.32H268.9a25,25,0,0,1,25,25v37.11H231.79V546.32A25,25,0,0,1,256.79,521.32Z" opacity="0.1"/><circle cx="4.97" cy="4.97" r="4.97" transform="translate(255.39 525.04)" fill="#3f3d56"/><circle cx="4.97" cy="4.97" r="4.97" transform="translate(255.39 518.83)" fill="#3f3d56"/><circle cx="4.97" cy="4.97" r="4.97" transform="translate(255.39 512.62)" fill="#3f3d56"/><circle cx="4.97" cy="4.97" r="4.97" transform="translate(255.39 506.41)" fill="#3f3d56"/><circle cx="4.97" cy="4.97" r="4.97" transform="translate(255.39 500.2)" fill="#3f3d56"/><circle cx="4.97" cy="4.97" r="4.97" transform="translate(255.39 493.99)" fill="#3f3d56"/><circle cx="4.97" cy="4.97" r="4.97" transform="translate(255.39 487.77)" fill="#3f3d56"/><circle cx="4.97" cy="4.97" r="4.97" transform="translate(262.85 490.26)" fill="#3f3d56"/><circle cx="4.97" cy="4.97" r="4.97" transform="translate(267.82 487.77)" fill="#3f3d56"/><circle cx="4.97" cy="4.97" r="4.97" transform="translate(272.79 485.29)" fill="#3f3d56"/><circle cx="4.97" cy="4.97" r="4.97" transform="translate(255.39 481.56)" fill="#3f3d56"/><circle cx="4.97" cy="4.97" r="4.97" transform="translate(255.39 475.35)" fill="#3f3d56"/><circle cx="4.97" cy="4.97" r="4.97" transform="translate(255.39 469.14)" fill="#3f3d56"/><circle cx="4.97" cy="4.97" r="4.97" transform="translate(255.39 462.93)" fill="#3f3d56"/><path d="M306,588.13q-1.86.27-3.72.39a28.564,28.564,0,0,0,3.2-3.28,21,21,0,0,0-3-5.83,10.219,10.219,0,0,1-4,1.26c-1.23.18-2.47.31-3.71.4a61.965,61.965,0,0,0,4.75-5,21.1,21.1,0,1,0,6.93,15.61,20.677,20.677,0,0,0-.32-3.63Z" transform="translate(-25 -136.26)" fill="#007bff"/><path d="M322.57,612.82a9.64,9.64,0,0,1-4.18,1.39c-1.23.18-2.47.32-3.71.4a36.413,36.413,0,0,0,3.68-3.82,12.44,12.44,0,1,0,4.21,2Z" transform="translate(-25 -136.26)" fill="#007bff"/><circle cx="4.97" cy="4.97" r="4.97" transform="translate(247.94 490.26)" fill="#3f3d56"/><circle cx="4.97" cy="4.97" r="4.97" transform="translate(242.97 487.77)" fill="#3f3d56"/><circle cx="4.97" cy="4.97" r="4.97" transform="translate(238 485.29)" fill="#3f3d56"/><path d="M248.16,612.82a9.64,9.64,0,0,0,4.18,1.39c1.23.18,2.47.32,3.71.4a35.42,35.42,0,0,1-3.68-3.82,12.44,12.44,0,1,1-4.21,2Z" transform="translate(-25 -136.26)" fill="#007bff"/><path d="M256.79,525H268.9a25,25,0,0,1,25,25v32.87a4.24,4.24,0,0,1-4.24,4.24H236a4.24,4.24,0,0,1-4.24-4.24V550a25,25,0,0,1,25.03-25Z" fill="#3f3d56"/><g opacity="0.1"><path d="M306.34,589.49a18.823,18.823,0,0,1-1.6,1.52,16.255,16.255,0,0,0,1.7-.15C306.42,590.4,306.39,589.94,306.34,589.49Z" transform="translate(-25 -136.26)"/><path d="M297.28,583.55c1.25-.08,2.48-.21,3.72-.39a12,12,0,0,0,3.23-.88,21.921,21.921,0,0,0-1.74-2.87,7.522,7.522,0,0,1-2,.85,28.786,28.786,0,0,1-3.21,3.29Z" transform="translate(-25 -136.26)"/><path d="M266.73,594.22a21.08,21.08,0,0,1,32.5-17.76l.32-.34a21.1,21.1,0,1,0-27.82,31.73,21,21,0,0,1-5-13.63Z" transform="translate(-25 -136.26)"/></g><g opacity="0.1"><path d="M314.68,617.09c1.24-.08,2.48-.21,3.71-.39a9.651,9.651,0,0,0,4.18-1.4,12.43,12.43,0,0,1,5,8.8,11.387,11.387,0,0,0,.07-1.31,12.38,12.38,0,0,0-5-10,9.64,9.64,0,0,1-4.18,1.39l-1,.13a25.372,25.372,0,0,1-2.78,2.78Z" transform="translate(-25 -136.26)"/><path d="M315.18,612.85a10.2,10.2,0,0,1,1.24.09c.65-.69,1.29-1.43,1.94-2.15a12.4,12.4,0,0,0-15.6,12,8.515,8.515,0,0,0,.06,1.24A12.42,12.42,0,0,1,315.18,612.85Z" transform="translate(-25 -136.26)"/></g><g opacity="0.1"><path d="M256.05,617.09c-1.24-.08-2.48-.21-3.71-.39a9.65,9.65,0,0,1-4.18-1.4,12.43,12.43,0,0,0-5,8.8,11.382,11.382,0,0,1-.07-1.31,12.38,12.38,0,0,1,5-10,9.64,9.64,0,0,0,4.18,1.39l1,.13A23.669,23.669,0,0,0,256.05,617.09Z" transform="translate(-25 -136.26)"/><path d="M255.55,612.85a10.507,10.507,0,0,0-1.25.09c-.64-.69-1.28-1.43-1.93-2.15a12.4,12.4,0,0,1,15.6,12,8.519,8.519,0,0,1-.06,1.24,12.42,12.42,0,0,0-12.36-11.18Z" transform="translate(-25 -136.26)"/></g><path d="M221.85,735.39h-97.7a4.15,4.15,0,0,1-4.15-4.15V685a4.15,4.15,0,0,1,5.93-3.75c28.07,13.32,58.31,17.89,94,.21a4.16,4.16,0,0,1,6,3.71v46A4.15,4.15,0,0,1,221.85,735.39Z" transform="translate(-25 -136.26)" fill="#007bff"/><path d="M221.85,735.39h-97.7a4.15,4.15,0,0,1-4.15-4.15V685a4.15,4.15,0,0,1,5.93-3.75c28.07,13.32,58.31,17.89,94,.21a4.16,4.16,0,0,1,6,3.71v46A4.15,4.15,0,0,1,221.85,735.39Z" transform="translate(-25 -136.26)" opacity="0.1"/><ellipse cx="5.78" cy="7.57" rx="5.78" ry="7.57" transform="translate(141.54 548.84)" fill="#3f3d56"/><ellipse cx="5.78" cy="7.57" rx="5.78" ry="7.57" transform="translate(141.54 539.59)" fill="#3f3d56"/><ellipse cx="5.78" cy="7.57" rx="5.78" ry="7.57" transform="translate(141.54 530.33)" fill="#3f3d56"/><ellipse cx="5.78" cy="7.57" rx="5.78" ry="7.57" transform="translate(141.54 521.08)" fill="#3f3d56"/><ellipse cx="5.78" cy="7.57" rx="5.78" ry="7.57" transform="translate(141.54 511.82)" fill="#3f3d56"/><ellipse cx="5.78" cy="7.57" rx="5.78" ry="7.57" transform="translate(141.54 502.56)" fill="#3f3d56"/><ellipse cx="5.78" cy="7.57" rx="5.78" ry="7.57" transform="translate(141.54 493.31)" fill="#3f3d56"/><path d="M194,573.8a29.421,29.421,0,0,0,2.15-3.17l-15.2-2.5,16.44.12a27.71,27.71,0,0,0,.53-22l-22.05,11.44,20.34-15a27.71,27.71,0,1,0-45.77,31,27.1,27.1,0,0,0-3.16,5.05L167,589.1,146,582a27.74,27.74,0,0,0,4.47,26,27.71,27.71,0,1,0,43.56,0,27.71,27.71,0,0,0,0-34.26Z" transform="translate(-25 -136.26)" fill="#007bff"/><path d="M144.49,590.93a27.59,27.59,0,0,0,5.93,17.13,27.71,27.71,0,1,0,43.56,0C197.69,603.35,144.49,587.82,144.49,590.93Z" transform="translate(-25 -136.26)" opacity="0.1"/><path d="M221.85,737.84h-97.7a4.15,4.15,0,0,1-4.15-4.15V685a4.15,4.15,0,0,1,5.93-3.75c28.07,13.32,50.33,28.85,94,.21,2.59-1.7,6,.62,6,3.71v48.5A4.15,4.15,0,0,1,221.85,737.84Z" transform="translate(-25 -136.26)" fill="#007bff"/><path d="M921.83,587.81,777.69,606.88l-7.21.95-70.47-37.64v-8.81l220.22-24.02Z" fill="#9c9ca1"/><path d="M740.85,574.19,897,555.78l-1.6,28.83-121.63,8.92Z" fill="#939498"/><path d="M802.69,733.67v9.46l-7.21,1L725,706.45v-8.81l67.27,36S801.09,734.47,802.69,733.67Z" transform="translate(-25 -136.26)" opacity="0.4"/><path d="M830.36,583.52,798,733.57a9.58,9.58,0,0,0,10.62,11.53L1013.35,718a9.58,9.58,0,0,0,7.84-6.48l44.17-133.2a9.6,9.6,0,0,0-9.56-12.6L839.28,576A9.6,9.6,0,0,0,830.36,583.52Z" transform="translate(-25 -136.26)" fill="#3f3d56"/><ellipse cx="8.7" cy="5.59" rx="8.7" ry="5.59" transform="translate(905.827 510.103) rotate(-84)" fill="#fff"/><g transform="translate(490.205 69.036)"><g transform="translate(4.795 -20)"><path d="M151.176,16.9s.345-3.308,7.643-5.077c-7.146-2.758-13.139,3.712-13.139,3.712l-10.631-2.208s-3.518-6.762,5.488-8.663c-6.313-3.155-12.794,5.78-12.794,5.78S115.286-3.445,111.448.81c7.314,2.618,4.655,8.252,4.655,8.252S26.562-13.494,4.8,53.047c5.816-7.688,7.314-6.052,7.314-6.052S4.937,92.226,15.8,118.9c2.39,2.138,3.789,0,3.789,0s-4.469-15.641-.471-29.179c2.794-9.45,14.082-16.727,15.429-21.867,2.214-11.247-2.668-22.173,12.844-30.426s39.493,2.41,48.516,2.02,29.594-11.8,44.972-4.951c16.472,7.333,10.841,29.221,11.3,32.445.884,4.025,7.643,8.057,12.129,14.652S162.3,125.5,162.3,125.5s2.509-2.479,4.5-4.673,10.471-61.046,9.646-63.107c-.842-2.061.657-4.951,4.158-1.511C183.574,34.488,151.176,16.9,151.176,16.9Z" transform="translate(-4.795 0)" fill="#454b69"/><path d="M153.367,50.136c-1.986,12.625-22.39,41.622-26.536,45.821-4.164,4.186-24.048-9.759-33.274-10.292-9.207-.52-31.221,13.692-36.813,10.292-4.25-2.584-44.754-77.873-45.319-75.47-2.352,10,8.5,41.714,8.969,49.153s.165,16.945,5.244,26.317,14.991,27.384,21.315,39.209c0-9.466,2.526-8.946,2.526-8.946S69.717,165.7,75.135,160.177c-6.324-5.813-3.8-11.332-3.8-11.332s15,40.515,19.869,42.1,22.038-43.435,22.038-43.435,4.347,9.732,0,15.532c6.15.8,30.348-34.209,39.025-61.046s12.657-76.325,12.657-76.325S155.353,37.484,153.367,50.136Z" transform="translate(-1.427 90.013)" fill="#454b69"/></g></g></g></g></svg>