<svg xmlns="http://www.w3.org/2000/svg" width="1149.994" height="627.495" viewBox="0 0 1149.994 627.495">
  <g id="Group_7" data-name="Group 7" transform="translate(183 -14)">
    <g id="about-img" transform="translate(716 -350)">
      <g id="Group_6" data-name="Group 6" transform="translate(-899 363.965)">
        <path id="Path_1" data-name="Path 1" d="M1162.81,718.44A188.561,188.561,0,0,1,1146.4,750a135.789,135.789,0,0,1-9.94,13.67.7.7,0,0,1-.11.12H25l.15-.12c1-.78,6.87-5.53,16-13.67,6.55-5.83,14.77-13.41,24-22.53,75.49-74.25,220.5-250,99.73-411-112.27-149.67,8.61-176.83,88.35-180a227.81,227.81,0,0,1,89.86,14.69c36.84,14,104.17,35.46,191.89,45.3,2.88.32,5.78.64,8.72.93a840.1,840.1,0,0,0,139.78,2.54h0c1.37-.08,2.75-.18,4.14-.28A830.617,830.617,0,0,0,824.34,178.5c2.91-.71,5.78-1.38,8.64-2.05,149.63-34.62,287.57,83.37,253.08,216.71-12.75,49.32-9.51,101.89,33,144.42C1188.66,607,1180.23,675.37,1162.81,718.44Z" transform="translate(-25 -136.26)" fill="#007bff" opacity="0.1"/>
        <path id="Path_2" data-name="Path 2" d="M1162.81,718.44A188.561,188.561,0,0,1,1146.4,750a135.789,135.789,0,0,1-9.94,13.67H25.15c1-.78,6.87-5.53,16-13.67,6.55-5.83,14.77-13.41,24-22.53l117.13-24.2a22.778,22.778,0,0,1,4.6-.47l124.87-.18h.13l61.85-.08h.14l52.2-.06h69.17l143.42-.2h61.71L725,702h8.14l71.64-.1h33.88l82.75-.11h24.64l78.38-.11,66.16-.08a23.456,23.456,0,0,1,5.47.65Z" transform="translate(-25 -136.26)" fill="#454b69"/>
        <path id="Path_3" data-name="Path 3" d="M41.15,750H1146.4a135.84,135.84,0,0,1-9.94,13.67H25.15C26.13,762.84,32,758.09,41.15,750Z" transform="translate(-25 -136.26)" fill="rgba(0,0,0,0)"/>
        <path id="Path_4" data-name="Path 4" d="M41.15,750H1146.4a135.84,135.84,0,0,1-9.94,13.67H25.15C26.13,762.84,32,758.09,41.15,750Z" transform="translate(-25 -136.26)" opacity="0.4"/>
        <path id="Path_5" data-name="Path 5" d="M568,387c1.09,6.19,1.67,13-1.49,18.4-4.21,7.24-13.39,9.55-21.6,11.19l-28.5,5.7c-1.94.39-4,.83-5.45,2.16-1.71,1.53-2.29,3.95-2.54,6.23-1.15,10.32,2.5,20.49,5.83,30.32,6.73,19.91,12.38,40.24,20.89,59.45S555.33,558,572,570.84s38.73,19.68,59.14,14.66c17.78-4.37,32.36-16.92,44.93-30.23,10.37-11,20.07-23,25.1-37.27,3.47-9.8,4.6-20.24,5.69-30.58l5.06-47.56c.79-7.44,1.31-15.81-3.52-21.52-2.12-2.51-5-4.18-7.94-5.73C689.52,406.8,678,402,667.82,395s-19.21-16.64-22.3-28.6c-1.85-7.18-1.52-15-4.67-21.69-3.52-7.5-11-12.58-19-14.81s-16.44-1.93-24.68-1-40,3.31-43.41,12.6c-1.83,5,5.76,15.73,7.56,20.65A144.166,144.166,0,0,1,568,387Z" transform="translate(-25 -136.26)" fill="#efb7b9"/>
        <path id="Path_6" data-name="Path 6" d="M568,387c1.09,6.19,1.67,13-1.49,18.4-4.21,7.24-13.39,9.55-21.6,11.19l-28.5,5.7c-1.94.39-4,.83-5.45,2.16-1.71,1.53-2.29,3.95-2.54,6.23-1.15,10.32,2.5,20.49,5.83,30.32,6.73,19.91,12.38,40.24,20.89,59.45S555.33,558,572,570.84s38.73,19.68,59.14,14.66c17.78-4.37,32.36-16.92,44.93-30.23,10.37-11,20.07-23,25.1-37.27,3.47-9.8,4.6-20.24,5.69-30.58l5.06-47.56c.79-7.44,1.31-15.81-3.52-21.52-2.12-2.51-5-4.18-7.94-5.73C689.52,406.8,678,402,667.82,395s-19.21-16.64-22.3-28.6c-1.85-7.18-1.52-15-4.67-21.69-3.52-7.5-11-12.58-19-14.81s-16.44-1.93-24.68-1-40,3.31-43.41,12.6c-1.83,5,5.76,15.73,7.56,20.65A144.166,144.166,0,0,1,568,387Z" transform="translate(-25 -136.26)" opacity="0.1"/>
        <path id="Path_7" data-name="Path 7" d="M636.59,495.74l16.71-35.38c7.83-16.58,15.83-34,15-52.31-.16-3.64-.2-8.19,3-9.84a8.58,8.58,0,0,1,4.39-.56,177.591,177.591,0,0,1,51.51,10.42c3.21,1.16,6.5,2.5,8.75,5.06s3.16,6,3.93,9.3a271.516,271.516,0,0,1,5.73,33.87c3,28.22,1.51,56.69,0,85l-4.44,86.43a8.26,8.26,0,0,1-.73,3.56c-1.1,2-3.58,2.67-5.81,3.05-8.59,1.47-17.37,1.17-26.07.84-61.2-2.32-122.72-5.88-183.52,1.54q.41-13.49-.43-27c-2.41-38.89-12.49-76.83-22.39-114.51-5.77-22-11.36-46-2.07-66.73a28.59,28.59,0,0,1,5.79-8.82c3.95-3.87,9.34-5.91,14.68-7.37a93.43,93.43,0,0,1,28.29-3.2C614.84,552.64,631.26,507,636.59,495.74Z" transform="translate(-25 -136.26)" fill="#fff"/>
        <path id="Path_8" data-name="Path 8" d="M674,480.962c3-13.4,7.85-27.032,5.78-40.612-2.86-18.75,1.81-15.15,0-34.03-.31-3.3-.11-7.16,2.54-9.15,1.64-1.23,3.8-1.4,5.84-1.52,18.86-1.12,39.58-.91,54.19,11.06,4.45,3.64,8.06,8.19,12.41,11.94,10.36,9,25,13.58,31.65,25.53,2.32,4.16,3.43,8.87,5.05,13.35,3.82,10.6,10.43,19.92,17,29.09-6.37,26.88-13.69,53.78-20.06,80.66-3.73,15.77-7.49,31.6-13.35,46.7-3.84,9.9-8.67,20-7.49,30.6.47,4.17,1.86,8.16,3.07,12.18a140,140,0,0,1,5.89,43.53l-285.34.7c13.67-19.6,17.68-43.64,16.29-67.49-.67-11.43-3.25-22.93-9-32.82-9.06-15.5-25-25.6-40.71-34.25-11-6-22.81,27.76-34.7,23.89,1.92-13.58,2.8-66,2-79.67-.26-4.48-.66-9.08.72-13.36.94-2.93,2.67-5.55,3.84-8.4,4.69-11.41.22-26,7.8-35.71,5.24-6.75,14.43-8.67,21.9-12.83,7.67-4.28,13.6-11,20.28-16.74A90.19,90.19,0,0,1,525.76,403a58.14,58.14,0,0,1,8.81,26c.51,5.81,16.22,35.389,19.43,42.629,3.663,8.272,8,26.667,22.667,39.021,12,14.312,20,28.979,45.333,34.312,18.667-6.667,23-15.333,36-28S673.01,485.277,674,480.962Z" transform="translate(-25 -136.26)" fill="#007bff"/>
        <path id="Path_9" data-name="Path 9" d="M624.667,547.95c11.28.71,26.337-13.518,30.667-23.988,6.225-14.924,20.829-21.582,24.447-37.342,3-13.4,4.61-26.56,2.54-40.14-2.86-18.75-.73-21.28-2.54-40.16-.31-3.3-.11-7.16,2.54-9.15,1.64-1.23,3.8-1.4,5.84-1.52,18.86-1.12,39.58-.91,54.19,11.06,4.45,3.64,8.06,8.19,12.41,11.94,10.36,9,25,13.58,31.65,25.53,2.32,4.16,3.43,8.87,5.05,13.35,3.82,10.6,10.43,19.92,17,29.09-6.37,26.88-13.69,53.78-20.06,80.66-3.73,15.77-7.49,31.6-13.35,46.7-3.84,9.9-8.67,20-7.49,30.6.47,4.17,1.86,8.16,3.07,12.18a140,140,0,0,1,5.89,43.53l-285.34.7c13.67-19.6,17.68-43.64,16.29-67.49-.67-11.43-3.25-22.93-9-32.82-9.06-15.5-25-25.6-40.71-34.25-11-6-22.81,27.76-34.7,23.89,1.92-13.58,2.8-66,2-79.67-.26-4.48-.66-9.08.72-13.36.94-2.93,2.67-5.55,3.84-8.4,4.69-11.41.22-26,7.8-35.71,5.24-6.75,14.43-8.67,21.9-12.83,7.67-4.28,13.6-11,20.28-16.74A90.19,90.19,0,0,1,525.76,403a58.139,58.139,0,0,1,8.81,26c.51,5.81.14,11.7.95,17.48,1.11,7.83,11.27,18.242,14.48,25.482,13.37,30.19,17.06,32.458,24,38.688S615.347,548.39,624.667,547.95Z" transform="translate(-25 -135.26)" opacity="0.1"/>
        <ellipse id="Ellipse_1" data-name="Ellipse 1" cx="81.22" cy="95.72" rx="81.22" ry="95.72" transform="translate(504.19 68.03)" fill="#efb7b9"/>
        <path id="Path_10" data-name="Path 10" d="M691.1,652.18c-15.45-2.45-31.13-7.18-46.45-4-8.88,1.84-17,6.26-24.38,11.6,4.06,3.25,8.8,6.15,11.38,10.67a42,42,0,0,1,3.58,9.87c1.62,6,3.25,12.12,3.5,18.36s-1,12.74-4.72,17.77c19.48,1.92,38.36-2.88,57.36-7.57a15.71,15.71,0,0,0,6.07-2.45c3-2.36,3.88-6.56,3.9-10.39,0-6.84-1.92-13.51-3.87-20.07C695.15,668.1,693.43,660,691.1,652.18Z" transform="translate(-25 -136.26)" fill="#fff"/>
        <path id="Path_11" data-name="Path 11" d="M795.42,483.51c7.67,1,13.62,7.19,18,13.55,12.29,17.7,17.59,39.16,23.49,59.89a797.129,797.129,0,0,0,25.87,76.12,114.551,114.551,0,0,0,7.76,16.7c2.47,4.13,5.47,8.1,6.56,12.79,2.64,11.34-6.71,22-16.46,28.32A65.144,65.144,0,0,1,843.79,699c-5.82,1.74-11.89,2.4-17.92,3.06l-55.51,6c-25.55,2.78-51.33,5.56-76.89,2.88-1.61-5.6,1.55-9.56,1.32-15.39-.16-4.17-2-8.05-3.64-11.89a76,76,0,0,1-5.93-21.51c-.29-2.73-.39-5.53-1.43-8.07s-3.27-4.82-6-5c15-1.49,26.39-4.32,41.39-5.82,5.57-.56,11.36-1.19,16.11-4.15,5.89-3.67,9.19-10.29,11.81-16.71,6.49-15.9,10.67-33.42,7.26-50.26-2.8-13.81-10.61-26.67-10.57-40.76,0-8.39,2.86-16.52,6.24-24.2,3.58-8.12,8.25-16.42,16.11-20.54S786.55,482.31,795.42,483.51Z" transform="translate(-25 -136.26)" fill="#007bff"/>
        <path id="Path_12" data-name="Path 12" d="M795.42,483.51c7.67,1,13.62,7.19,18,13.55,12.29,17.7,17.59,39.16,23.49,59.89a797.129,797.129,0,0,0,25.87,76.12,114.551,114.551,0,0,0,7.76,16.7c2.47,4.13,5.47,8.1,6.56,12.79,2.64,11.34-6.71,22-16.46,28.32A65.144,65.144,0,0,1,843.79,699c-5.82,1.74-11.89,2.4-17.92,3.06l-55.51,6c-25.55,2.78-51.33,5.56-76.89,2.88-1.61-5.6,1.55-9.56,1.32-15.39-.16-4.17-2-8.05-3.64-11.89a76,76,0,0,1-5.93-21.51c-.29-2.73-.39-5.53-1.43-8.07s-3.27-4.82-6-5c15-1.49,26.39-4.32,41.39-5.82,5.57-.56,11.36-1.19,16.11-4.15,5.89-3.67,9.19-10.29,11.81-16.71,6.49-15.9,10.67-33.42,7.26-50.26-2.8-13.81-10.61-26.67-10.57-40.76,0-8.39,2.86-16.52,6.24-24.2,3.58-8.12,8.25-16.42,16.11-20.54S786.55,482.31,795.42,483.51Z" transform="translate(-25 -136.26)" opacity="0.08"/>
        <path id="Path_13" data-name="Path 13" d="M447.81,470.52c3.63-8.62,7.32-17.52,7.42-26.87.11-10.11-4-19.71-7.14-29.31a169.486,169.486,0,0,1-7.71-36.19,5,5,0,0,1,.5-3.47c.83-1.17,2.43-1.41,3.84-1.72,6.92-1.58,12.15-7.17,16.47-12.8A140.341,140.341,0,0,0,478.05,332c3.31-7.37,7.79-16.36,15.87-16.43a458.357,458.357,0,0,1-12.08,45.25c8.45-2.16,16.48-5.3,24.93-7.46a14.93,14.93,0,0,1,5.12-.68c5.06.53,8.16,7.38,5.22,11.53,4.13,4.84,11,6.14,16.4,9.46s9.28,11.54,4.48,15.71c-.94.81-2.13,1.38-2.81,2.42-2.32,3.58,3.36,7.69,2.89,11.93-.38,3.47-4.83,5.09-8.2,4.17s-6-3.44-9-5.29-6.92-3-9.83-1.08c-.78,9.41-1.62,19-5.69,27.57-1.49,3.13-3.4,6.06-4.6,9.31a45.884,45.884,0,0,0-2.12,10.93L495,482.53C477.68,486,462.15,480.81,447.81,470.52Z" transform="translate(-25 -136.26)" fill="#efb7b9"/>
        <path id="Path_14" data-name="Path 14" d="M443.58,500.27l-3.19-21.59a35.094,35.094,0,0,1-.51-5.32c0-5,2.2-9.77,4.33-14.32,17.65,8.24,36.73,11.17,56.2,11.18,2.57,0,5.5-.24,7.1-2.25,3.31,3.81,3.41,9.94,2,14.78s-4.12,9.2-5.92,13.92c-.91,2.39-1.65,5-3.39,6.84-2.7,2.91-7.08,3.41-11.06,3.39a70.7,70.7,0,0,1-12.48-1.19C466,503.73,454.24,498.36,443.58,500.27Z" transform="translate(-25 -136.26)" fill="#fff"/>
        <path id="Path_15" data-name="Path 15" d="M509.41,499.39q-20.55-2.34-40.83-6.6c-6.63-1.39-13.32-2.94-20.08-2.67-4.4.18-9.13,1.06-13-1.12,3.77,12.83,4,26.35-.51,38.94-2.67,7.5-6.74,14.49-8.7,22.21-4.08,16.15,1.52,33.76-3.58,49.62a12.56,12.56,0,0,1-3.08,5.52c-1.56,1.43-3.69,2.17-5.13,3.72-2.12,2.28-2.25,5.71-2.26,8.82l-.09,27.55c-.06,17.54.17,36.14,9.43,51,10.56,17,32.79,25.81,52.14,20.64a38.761,38.761,0,0,0,14.16-6.93c6.72-5.34,11-13.06,15.19-20.58,5-9,10-18.2,11.61-28.33,1.14-7.17.5-14.49-.32-21.7-4.52-40-14.33-79.66-12.22-119.81a36.31,36.31,0,0,1,7.27-20.28Z" transform="translate(-25 -136.26)" fill="#007bff"/>
        <path id="Path_16" data-name="Path 16" d="M566.67,665.39c-6.95.4-13.95.8-20.87,0-5-.6-9.88-1.83-14.84-2.67A95.11,95.11,0,0,0,454.37,684c-3.84,3.28-7.72,8.31-5.6,12.9,2.28,4.94,9.25,4.8,14.62,3.88a44,44,0,0,0-15,11.73c-1.5,1.83-2.92,4-2.63,6.37.61,4.95,7.33,5.85,12.3,5.42-1.62,1.74-.53,4.82,1.53,6s4.62.94,6.95.51a51.521,51.521,0,0,0,14.76-5.11c-.94,2.45.69,5.32,3,6.54s5.12,1.13,7.71.71c12.22-2,22.42-10.5,34.34-13.84,19.06-5.33,39,3.17,58.81,3.77,6.2.19,12.56-.44,18.21-3,6.93-3.15,12.52-9.06,19.84-11.16,8.13-2.32,17.46.35,24.9-3.66,5.41-2.91.53-25.34-.85-29.66-2.53-7.9-5.07-13.14-13.5-13.94C612.43,659.37,588.16,664.15,566.67,665.39Z" transform="translate(-25 -136.26)" fill="#efb7b9"/>
        <path id="Path_17" data-name="Path 17" d="M619.88,659.27s32.29,27.33,13.66,57.15l36-12.43V677.9c0-1.24-13.67-19.87-13.67-19.87l-16.15-2.49Z" transform="translate(-25 -136.26)" fill="#fff"/>
        <path id="Path_18" data-name="Path 18" d="M256.79,521.32H268.9a25,25,0,0,1,25,25v37.11H231.79V546.32A25,25,0,0,1,256.79,521.32Z" fill="#3f3d56"/>
        <path id="Path_19" data-name="Path 19" d="M256.79,521.32H268.9a25,25,0,0,1,25,25v37.11H231.79V546.32A25,25,0,0,1,256.79,521.32Z" opacity="0.1"/>
        <circle id="Ellipse_2" data-name="Ellipse 2" cx="4.97" cy="4.97" r="4.97" transform="translate(255.39 525.04)" fill="#3f3d56"/>
        <circle id="Ellipse_3" data-name="Ellipse 3" cx="4.97" cy="4.97" r="4.97" transform="translate(255.39 518.83)" fill="#3f3d56"/>
        <circle id="Ellipse_4" data-name="Ellipse 4" cx="4.97" cy="4.97" r="4.97" transform="translate(255.39 512.62)" fill="#3f3d56"/>
        <circle id="Ellipse_5" data-name="Ellipse 5" cx="4.97" cy="4.97" r="4.97" transform="translate(255.39 506.41)" fill="#3f3d56"/>
        <circle id="Ellipse_6" data-name="Ellipse 6" cx="4.97" cy="4.97" r="4.97" transform="translate(255.39 500.2)" fill="#3f3d56"/>
        <circle id="Ellipse_7" data-name="Ellipse 7" cx="4.97" cy="4.97" r="4.97" transform="translate(255.39 493.99)" fill="#3f3d56"/>
        <circle id="Ellipse_8" data-name="Ellipse 8" cx="4.97" cy="4.97" r="4.97" transform="translate(255.39 487.77)" fill="#3f3d56"/>
        <circle id="Ellipse_9" data-name="Ellipse 9" cx="4.97" cy="4.97" r="4.97" transform="translate(262.85 490.26)" fill="#3f3d56"/>
        <circle id="Ellipse_10" data-name="Ellipse 10" cx="4.97" cy="4.97" r="4.97" transform="translate(267.82 487.77)" fill="#3f3d56"/>
        <circle id="Ellipse_11" data-name="Ellipse 11" cx="4.97" cy="4.97" r="4.97" transform="translate(272.79 485.29)" fill="#3f3d56"/>
        <circle id="Ellipse_12" data-name="Ellipse 12" cx="4.97" cy="4.97" r="4.97" transform="translate(255.39 481.56)" fill="#3f3d56"/>
        <circle id="Ellipse_13" data-name="Ellipse 13" cx="4.97" cy="4.97" r="4.97" transform="translate(255.39 475.35)" fill="#3f3d56"/>
        <circle id="Ellipse_14" data-name="Ellipse 14" cx="4.97" cy="4.97" r="4.97" transform="translate(255.39 469.14)" fill="#3f3d56"/>
        <circle id="Ellipse_15" data-name="Ellipse 15" cx="4.97" cy="4.97" r="4.97" transform="translate(255.39 462.93)" fill="#3f3d56"/>
        <path id="Path_20" data-name="Path 20" d="M306,588.13q-1.86.27-3.72.39a28.57,28.57,0,0,0,3.2-3.28,21,21,0,0,0-3-5.83,10.219,10.219,0,0,1-4,1.26c-1.23.18-2.47.31-3.71.4a61.975,61.975,0,0,0,4.75-5,21.1,21.1,0,1,0,6.93,15.61,20.677,20.677,0,0,0-.32-3.63Z" transform="translate(-25 -136.26)" fill="#007bff"/>
        <path id="Path_21" data-name="Path 21" d="M322.57,612.82a9.64,9.64,0,0,1-4.18,1.39c-1.23.18-2.47.32-3.71.4a36.416,36.416,0,0,0,3.68-3.82,12.44,12.44,0,1,0,4.21,2Z" transform="translate(-25 -136.26)" fill="#007bff"/>
        <circle id="Ellipse_16" data-name="Ellipse 16" cx="4.97" cy="4.97" r="4.97" transform="translate(247.94 490.26)" fill="#3f3d56"/>
        <circle id="Ellipse_17" data-name="Ellipse 17" cx="4.97" cy="4.97" r="4.97" transform="translate(242.97 487.77)" fill="#3f3d56"/>
        <circle id="Ellipse_18" data-name="Ellipse 18" cx="4.97" cy="4.97" r="4.97" transform="translate(238 485.29)" fill="#3f3d56"/>
        <path id="Path_22" data-name="Path 22" d="M248.16,612.82a9.64,9.64,0,0,0,4.18,1.39c1.23.18,2.47.32,3.71.4a35.42,35.42,0,0,1-3.68-3.82,12.44,12.44,0,1,1-4.21,2Z" transform="translate(-25 -136.26)" fill="#007bff"/>
        <path id="Path_23" data-name="Path 23" d="M256.79,525H268.9a25,25,0,0,1,25,25v32.87a4.24,4.24,0,0,1-4.24,4.24H236a4.24,4.24,0,0,1-4.24-4.24V550a25,25,0,0,1,25.03-25Z" fill="#3f3d56"/>
        <g id="Group_1" data-name="Group 1" opacity="0.1">
          <path id="Path_24" data-name="Path 24" d="M306.34,589.49a18.823,18.823,0,0,1-1.6,1.52,16.246,16.246,0,0,0,1.7-.15C306.42,590.4,306.39,589.94,306.34,589.49Z" transform="translate(-25 -136.26)"/>
          <path id="Path_25" data-name="Path 25" d="M297.28,583.55c1.25-.08,2.48-.21,3.72-.39a12,12,0,0,0,3.23-.88,21.921,21.921,0,0,0-1.74-2.87,7.523,7.523,0,0,1-2,.85,28.788,28.788,0,0,1-3.21,3.29Z" transform="translate(-25 -136.26)"/>
          <path id="Path_26" data-name="Path 26" d="M266.73,594.22a21.08,21.08,0,0,1,32.5-17.76l.32-.34a21.1,21.1,0,1,0-27.82,31.73,21,21,0,0,1-5-13.63Z" transform="translate(-25 -136.26)"/>
        </g>
        <g id="Group_2" data-name="Group 2" opacity="0.1">
          <path id="Path_27" data-name="Path 27" d="M314.68,617.09c1.24-.08,2.48-.21,3.71-.39a9.651,9.651,0,0,0,4.18-1.4,12.43,12.43,0,0,1,5,8.8,11.393,11.393,0,0,0,.07-1.31,12.38,12.38,0,0,0-5-10,9.64,9.64,0,0,1-4.18,1.39l-1,.13A25.371,25.371,0,0,1,314.68,617.09Z" transform="translate(-25 -136.26)"/>
          <path id="Path_28" data-name="Path 28" d="M315.18,612.85a10.2,10.2,0,0,1,1.24.09c.65-.69,1.29-1.43,1.94-2.15a12.4,12.4,0,0,0-15.6,12,8.511,8.511,0,0,0,.06,1.24A12.42,12.42,0,0,1,315.18,612.85Z" transform="translate(-25 -136.26)"/>
        </g>
        <g id="Group_3" data-name="Group 3" opacity="0.1">
          <path id="Path_29" data-name="Path 29" d="M256.05,617.09c-1.24-.08-2.48-.21-3.71-.39a9.65,9.65,0,0,1-4.18-1.4,12.43,12.43,0,0,0-5,8.8,11.389,11.389,0,0,1-.07-1.31,12.38,12.38,0,0,1,5-10,9.64,9.64,0,0,0,4.18,1.39l1,.13a23.674,23.674,0,0,0,2.78,2.78Z" transform="translate(-25 -136.26)"/>
          <path id="Path_30" data-name="Path 30" d="M255.55,612.85a10.507,10.507,0,0,0-1.25.09c-.64-.69-1.28-1.43-1.93-2.15a12.4,12.4,0,0,1,15.6,12,8.516,8.516,0,0,1-.06,1.24,12.42,12.42,0,0,0-12.36-11.18Z" transform="translate(-25 -136.26)"/>
        </g>
        <path id="Path_31" data-name="Path 31" d="M221.85,735.39h-97.7a4.15,4.15,0,0,1-4.15-4.15V685a4.15,4.15,0,0,1,5.93-3.75c28.07,13.32,58.31,17.89,94,.21a4.16,4.16,0,0,1,6,3.71v46A4.15,4.15,0,0,1,221.85,735.39Z" transform="translate(-25 -136.26)" fill="#007bff"/>
        <path id="Path_32" data-name="Path 32" d="M221.85,735.39h-97.7a4.15,4.15,0,0,1-4.15-4.15V685a4.15,4.15,0,0,1,5.93-3.75c28.07,13.32,58.31,17.89,94,.21a4.16,4.16,0,0,1,6,3.71v46A4.15,4.15,0,0,1,221.85,735.39Z" transform="translate(-25 -136.26)" opacity="0.1"/>
        <ellipse id="Ellipse_19" data-name="Ellipse 19" cx="5.78" cy="7.57" rx="5.78" ry="7.57" transform="translate(141.54 548.84)" fill="#3f3d56"/>
        <ellipse id="Ellipse_20" data-name="Ellipse 20" cx="5.78" cy="7.57" rx="5.78" ry="7.57" transform="translate(141.54 539.59)" fill="#3f3d56"/>
        <ellipse id="Ellipse_21" data-name="Ellipse 21" cx="5.78" cy="7.57" rx="5.78" ry="7.57" transform="translate(141.54 530.33)" fill="#3f3d56"/>
        <ellipse id="Ellipse_22" data-name="Ellipse 22" cx="5.78" cy="7.57" rx="5.78" ry="7.57" transform="translate(141.54 521.08)" fill="#3f3d56"/>
        <ellipse id="Ellipse_23" data-name="Ellipse 23" cx="5.78" cy="7.57" rx="5.78" ry="7.57" transform="translate(141.54 511.82)" fill="#3f3d56"/>
        <ellipse id="Ellipse_24" data-name="Ellipse 24" cx="5.78" cy="7.57" rx="5.78" ry="7.57" transform="translate(141.54 502.56)" fill="#3f3d56"/>
        <ellipse id="Ellipse_25" data-name="Ellipse 25" cx="5.78" cy="7.57" rx="5.78" ry="7.57" transform="translate(141.54 493.31)" fill="#3f3d56"/>
        <path id="Path_33" data-name="Path 33" d="M194,573.8a29.421,29.421,0,0,0,2.15-3.17l-15.2-2.5,16.44.12a27.71,27.71,0,0,0,.53-22l-22.05,11.44,20.34-15a27.71,27.71,0,1,0-45.77,31,27.1,27.1,0,0,0-3.16,5.05L167,589.1,146,582a27.74,27.74,0,0,0,4.47,26,27.71,27.71,0,1,0,43.56,0,27.71,27.71,0,0,0,0-34.26Z" transform="translate(-25 -136.26)" fill="#007bff"/>
        <path id="Path_34" data-name="Path 34" d="M144.49,590.93a27.59,27.59,0,0,0,5.93,17.13,27.71,27.71,0,1,0,43.56,0C197.69,603.35,144.49,587.82,144.49,590.93Z" transform="translate(-25 -136.26)" opacity="0.1"/>
        <path id="Path_35" data-name="Path 35" d="M221.85,737.84h-97.7a4.15,4.15,0,0,1-4.15-4.15V685a4.15,4.15,0,0,1,5.93-3.75c28.07,13.32,50.33,28.85,94,.21,2.59-1.7,6,.62,6,3.71v48.5A4.15,4.15,0,0,1,221.85,737.84Z" transform="translate(-25 -136.26)" fill="#007bff"/>
        <path id="Path_36" data-name="Path 36" d="M921.83,587.81,777.69,606.88l-7.21.95-70.47-37.64v-8.81l220.22-24.02Z" fill="#9c9ca1"/>
        <path id="Path_37" data-name="Path 37" d="M740.85,574.19,897,555.78l-1.6,28.83-121.63,8.92Z" fill="#939498"/>
        <path id="Path_38" data-name="Path 38" d="M802.69,733.67v9.46l-7.21,1L725,706.45v-8.81l67.27,36S801.09,734.47,802.69,733.67Z" transform="translate(-25 -136.26)" opacity="0.4"/>
        <path id="Path_39" data-name="Path 39" d="M830.36,583.52,798,733.57a9.58,9.58,0,0,0,10.62,11.53L1013.35,718a9.58,9.58,0,0,0,7.84-6.48l44.17-133.2a9.6,9.6,0,0,0-9.56-12.6L839.28,576A9.6,9.6,0,0,0,830.36,583.52Z" transform="translate(-25 -136.26)" fill="#3f3d56"/>
        <ellipse id="Ellipse_26" data-name="Ellipse 26" cx="8.7" cy="5.59" rx="8.7" ry="5.59" transform="translate(905.827 510.103) rotate(-84)" fill="#fff"/>
      </g>
    </g>
    <g id="short-male-hair-shape" transform="translate(312.151 62.394)">
      <path id="Path_43" data-name="Path 43" d="M16.45,153.879C9.031,149.068,5.4,114.538,5.4,114.538S-.818,77.323.091,69.682,14.323,51.279,18.719,52c-8.934-12.02,9.237-16.548,9.237-16.548S45.218,20.874,85.2,12.949c3.784-.283-5.459-3.679-13.379-4.655,2.776-5.112,20.2,3.518,20.2,3.518s-6.968-6.931-15-9.051c2.318-2.206,12.9,4.124,24.842,8.341,21.757,7.694,41.287,6.96,47.8,15.451,3.184,3.4.365,9.594,4.9,10.166s30.894,7.353,39.377,31.549c-9.849-10.466-16.817-10.039-16.817-10.039s15.3,16.271,15,28.158c-.117,4.563-4.952,8.121-8.792,14.573-6.139,10.322-12.495,23.936-13.62,29.851-1.83,9.623-3.944,25.472-8.34,26.038s-3.629-61.971-3.023-65.939c1.515-5.793-26.659-12.586-26.659-12.586s20.594,12.309,15.592,24.051c-5.459-13.591-13.021-13.73-13.021-13.73s15.9,28.58,6.51,34.1c-5.459-32.115-19.382-38.775-30.591-43.575-11.209-4.817-35.593-2.836-49.832,2.12s-28.928.993-28.928.993l2.43,12.17-6.819-5.1-1.36,7.786s4.383,7.347,3.784,11.6c-4.39-5.094-6.362-5.094-6.362-5.094s3.79,5.8,2.121,8.912c-2.121-4.1-5.756-2.686-5.756-2.686S20.994,153.457,16.45,153.879Z" transform="translate(0 -2.306)" fill="#454b69"/>
    </g>
  </g>
</svg>
