<svg xmlns="http://www.w3.org/2000/svg" xmlns:xlink="http://www.w3.org/1999/xlink" width="1136.66" height="643.18" viewBox="0 0 1136.66 643.18"><defs><linearGradient id="a" x1="0.5" y1="1" x2="0.5" gradientUnits="objectBoundingBox"><stop offset="0" stop-color="gray" stop-opacity="0.251"/><stop offset="0.54" stop-color="gray" stop-opacity="0.122"/><stop offset="1" stop-color="gray" stop-opacity="0.102"/></linearGradient><linearGradient id="b" x1="-222.1" y1="711.31" x2="-222.1" y2="269.19" xlink:href="#a"/><linearGradient id="c" x1="197.37" y1="744.56" x2="197.37" y2="339.73" xlink:href="#a"/></defs><g transform="translate(255 -60)"><rect width="1136.64" height="643.18" transform="translate(-254.98 60)" fill="none"/><path d="M650.4,132.757c-70.76.54-138.73-15.45-203.73-33.27s-129.47-37.83-198.84-46c-44.62-5.28-95.4-4.45-130.48,16-33.75,19.66-43.73,51.88-48.66,81.62-3.71,22.38-5.52,45.86,7.54,66.23,9.07,14.13,24.69,25.73,35.68,39.19,38.26,46.84,14.54,107.11-23.4,155.51-17.77,22.67-38.57,44.49-52.11,68.49s-19.18,51.11-5.79,74.6c13.28,23.29,43.54,40.06,76.08,51.45,66.1,23.14,143.17,27.7,218.23,29.17,166.14,3.24,332.71-6.64,498.82-16.51,61.48-3.65,123.23-7.33,183.48-17.15,33.46-5.45,67.93-13.43,91.75-30.6,30.24-21.8,36.68-57.12,15-82.34-36.37-42.29-133-49.68-159-95.53-14.31-25.24-1.57-54.37,17-78.91,39.94-52.65,108.34-100,109.95-158.63,1.11-40.25-34-79.28-86.68-96.43-55.24-18-130.78-12.79-169.84,21.62C785.24,116.637,712.9,132.287,650.4,132.757Z" transform="translate(-254.98 60)" fill="#3c74f3" opacity="0.21"/><path d="M928.97,550.93s-12.29-8.11-24.47-2.35c0,0,3.75,7.23,19.17,6.54Z" transform="translate(-254.98 60)" fill="#3c74f3"/><path d="M930.48,551.36s3.74,14.24-5.63,23.93c0,0-5.64-5.87-.05-20.25Z" transform="translate(-254.98 60)" fill="#3c74f3"/><path d="M945.81,537.69s-.91-12.11-28.26-8.1c0,0-.12,7.82,9.48,11.52S941.02,541.69,945.81,537.69Z" transform="translate(-254.98 60)" fill="#3c74f3"/><path d="M947.49,537.61s11.56,3.71,1.25,29.36c0,0-7.62-1.7-9-11.91S942.48,541.32,947.49,537.61Z" transform="translate(-254.98 60)" fill="#3c74f3"/><path d="M962.97,520.42s1.57-19.93-26.38-17.88c0,0-2,18,21.45,22.68Z" transform="translate(-254.98 60)" fill="#3c74f3"/><path d="M981.4,497.93s-3.83-22.59-31.76-15.86c0,0-.11,19.53,27.2,21.24Z" transform="translate(-254.98 60)" fill="#3c74f3"/><path d="M994.94,474.67s-6.42-22-34.1-15.42c0,0,6.59,19.79,32.26,19.48Z" transform="translate(-254.98 60)" fill="#3c74f3"/><path d="M1007.76,451.95s-6.27-22.83-33-16c0,0,8.92,21.69,31.23,19.87Z" transform="translate(-254.98 60)" fill="#3c74f3"/><path d="M1016.03,430.37s-4.82-27.92-29.74-21.74c0,0,7.23,25.4,27.9,25.8Z" transform="translate(-254.98 60)" fill="#3c74f3"/><path d="M1023.77,404.3s-5.78-28.15-31-20c0,0,9.89,26.6,29.22,23.85Z" transform="translate(-254.98 60)" fill="#3c74f3"/><path d="M1028.57,380.03s-9.19-28.14-28.68-27.38c0,0,9.4,29.73,27,33Z" transform="translate(-254.98 60)" fill="#3c74f3"/><path d="M1031.62,356.36s-10-33.88-25.87-31.27c0,0,6.93,25.9,25.3,36.55Z" transform="translate(-254.98 60)" fill="#3c74f3"/><path d="M1033.4,328.08s-9.37-28.23-25-29.36c0,0,6.37,27.78,24.68,36.69Z" transform="translate(-254.98 60)" fill="#3c74f3"/><path d="M1035.24,301.8s-11.69-28.26-22-28.9c0,0,5.08,27.83,21,33.54Z" transform="translate(-254.98 60)" fill="#3c74f3"/><path d="M1036.54,277.23s-7.18-30.7-17.52-33.24c0,0,1.41,25.11,16.48,35.54Z" transform="translate(-254.98 60)" fill="#3c74f3"/><path d="M1040.4,245.14s-7.56-24.46-15.93-28.19c0,0,1.66,28.84,14,34.18Z" transform="translate(-254.98 60)" fill="#3c74f3"/><path d="M1043.66,224.07l1.53-43.14s-15.62,32.56-2.68,50.75Z" transform="translate(-254.98 60)" fill="#3c74f3"/><path d="M1055.75,181.2s11.26-31.5,14-33.26c0,0-22.1,20.44-19.94,46.73Z" transform="translate(-254.98 60)" fill="#3c74f3"/><path d="M963.74,520.28s19.82-2.6,19.22,25.42c0,0-17.91,2.91-23.75-20.25Z" transform="translate(-254.98 60)" fill="#3c74f3"/><path d="M982.4,497.17s22.91-.07,21,28.6c0,0-19.22,3.43-25.57-23.18Z" transform="translate(-254.98 60)" fill="#3c74f3"/><path d="M995.16,476.52s20.79-9.75,34.1,15.42c0,0-19.21,8.12-35.93-11.35Z" transform="translate(-254.98 60)" fill="#3c74f3"/><path d="M1008.22,452.16s21.29-10.37,33.79,14.21c0,0-22.17,7.64-35.54-10.32Z" transform="translate(-254.98 60)" fill="#3c74f3"/><path d="M1015.75,430.98s20.49-19.58,36.85.22c0,0-20.94,16.1-37.79,4.14Z" transform="translate(-254.98 60)" fill="#3c74f3"/><path d="M1022.61,403.63s20.62-20,36.84.92c0,0-23.14,16.43-37.57,3.28Z" transform="translate(-254.98 60)" fill="#3c74f3"/><path d="M1026.47,379.23s15.88-25,34.57-19.41c0,0-16.47,26.47-34.4,25.29Z" transform="translate(-254.98 60)" fill="#3c74f3"/><path d="M1031.15,356.2s16-31.49,31.13-26c0,0-11.53,24.2-31.54,31.31Z" transform="translate(-254.98 60)" fill="#3c74f3"/><path d="M1032.25,326.47s16.45-24.78,31.86-21.76c0,0-13.45,25.13-33.45,28.93Z" transform="translate(-254.98 60)" fill="#3c74f3"/><path d="M1033.5,301.19s12.75-27.8,23.12-28c0,0-6.13,27.61-22.26,32.72Z" transform="translate(-254.98 60)" fill="#3c74f3"/><path d="M1036.03,276.63s14.17-28.17,24.82-28.22c0,0-7.25,24.08-24.35,30.69Z" transform="translate(-254.98 60)" fill="#3c74f3"/><path d="M1038.16,246.87s10.6-23.3,19.38-25.94c0,0-5.3,28.4-18.21,32.12Z" transform="translate(-254.98 60)" fill="#3c74f3"/><path d="M1044.92,223.25l23.69-36.08s-6.07,35.6-27.14,43Z" transform="translate(-254.98 60)" fill="#3c74f3"/><path d="M1061.18,184.1s27.54-19,28.53-22.08c0,0-14,26.62-40,31.32Z" transform="translate(-254.98 60)" fill="#3c74f3"/><path d="M1062.83,175.55s31.61-30.38,39.68-30.35c0,0-26.07,1.19-40.44,28.74Z" transform="translate(-254.98 60)" fill="#3c74f3"/><path d="M1038.47,251.38l1.15.15c5.94-46.5,14.6-74,24.39-77.37l-.38-1.1C1053.25,176.66,1044.55,203.74,1038.47,251.38Z" transform="translate(-254.98 60)" fill="#444053"/><path d="M1029.74,362.55l1.74.15c.36-4.34.64-8.79.83-13.21,1.66-38.48,4.23-73.82,7.62-100.31l-1-1.25c-3.39,26.54-6.69,62.95-8.35,101.49C1030.4,353.8,1030.1,358.24,1029.74,362.55Z" transform="translate(-254.98 60)" fill="#444053"/><path d="M896.51,573.06c.31-.13,30.94-13.81,62.73-46.44a252.421,252.421,0,0,0,45.85-65c14.69-29.93,23.65-66.71,26.66-102.44l-1.82.85c-6.74,80.2-43.26,135-72.29,164.85-31.48,32.33-61.76,45.87-62.06,46Z" transform="translate(-254.98 60)" fill="#444053"/><path d="M969.85,31.19V549.61c0,15.41-14.87,28-33.23,28H233.25c-18.36,0-33.23-12.54-33.23-28V31.19C200.02,15.75,214.89,0,233.25,0L936.58,1.71C954.94,1.71,969.85,15.8,969.85,31.19Z" transform="translate(-254.98 60)" fill="#fff" opacity="0.24"/><path d="M969.85,31.35v24H200.02v-24A31.35,31.35,0,0,1,231.4,0H938.51a31.35,31.35,0,0,1,31.34,31.35Z" transform="translate(-254.98 60)" fill="#3f3d56"/><circle cx="11.08" cy="11.08" r="11.08" transform="translate(-28.74 76.59)" fill="#fa5959" opacity="0.8"/><circle cx="11.08" cy="11.08" r="11.08" transform="translate(3.49 76.59)" fill="#fed253" opacity="0.8"/><circle cx="11.08" cy="11.08" r="11.08" transform="translate(35.72 76.59)" fill="#8ccf4d" opacity="0.8"/><path d="M653.4,189.8v56c0,1.67-3.13,3-7,3H498.68c-3.86,0-7-1.35-7-3v-56c0-1.67,3.12-3.37,7-3.37H646.4C650.28,186.42,653.4,188.12,653.4,189.8Z" transform="translate(-254.98 60)" fill="#c1d5ff"/><rect width="76.96" height="2.72" transform="translate(307.69 266.42)" fill="#3c74f3"/><rect width="76.96" height="2.72" transform="translate(307.69 273.04)" fill="#3c74f3" opacity="0.2"/><rect width="76.96" height="2.72" transform="translate(307.69 279.66)" fill="#3c74f3" opacity="0.2"/><rect width="76.96" height="2.72" transform="translate(307.69 286.29)" fill="#3c74f3" opacity="0.2"/><path d="M480.9,299.47v56c0,1.66-3.12,3-7,3H326.179c-3.86,0-7-1.36-7-3v-56c0-1.67,3.12-3.37,7-3.37h147.74C477.779,296.1,480.9,297.8,480.9,299.47Z" transform="translate(-254.98 60)" fill="#c1d5ff"/><rect width="76.96" height="2.72" transform="translate(134.27 376.1)" fill="#3c74f3"/><rect width="76.96" height="2.72" transform="translate(134.27 382.72)" fill="#3c74f3" opacity="0.2"/><rect width="76.96" height="2.72" transform="translate(134.27 389.34)" fill="#3c74f3" opacity="0.2"/><rect width="76.96" height="2.72" transform="translate(134.27 395.96)" fill="#3c74f3" opacity="0.2"/><path d="M440.1,122.789v56c0,1.66-3.12,3-7,3H285.4c-3.85,0-7-1.36-7-3v-56c0-1.67,3.13-3.37,7-3.37H433.12C436.98,119.419,440.1,121.119,440.1,122.789Z" transform="translate(-254.98 60)" fill="#c1d5ff"/><rect width="76.96" height="2.72" transform="translate(94.38 198.51)" fill="#3c74f3"/><rect width="76.96" height="2.72" transform="translate(94.38 205.13)" fill="#3c74f3" opacity="0.2"/><rect width="76.96" height="2.72" transform="translate(94.38 211.75)" fill="#3c74f3" opacity="0.2"/><rect width="76.96" height="2.72" transform="translate(94.38 218.37)" fill="#3c74f3" opacity="0.2"/><path d="M693.77,386.8v56c0,1.67-3.12,3-7,3H539.04c-3.86,0-7-1.35-7-3v-56c0-1.67,3.12-3.36,7-3.36H686.79C690.65,383.39,693.77,385.08,693.77,386.8Z" transform="translate(-254.98 60)" fill="#c1d5ff"/><rect width="76.96" height="2.72" transform="translate(348.05 463.38)" fill="#3c74f3"/><rect width="76.96" height="2.72" transform="translate(348.05 470)" fill="#3c74f3" opacity="0.2"/><rect width="76.96" height="2.72" transform="translate(348.05 476.63)" fill="#3c74f3" opacity="0.2"/><rect width="76.96" height="2.72" transform="translate(348.05 483.25)" fill="#3c74f3" opacity="0.2"/><path d="M556.16,703.48l-21.94-31.81s-.41-7.88-1.85-9.72-.31-5.93-.31-5.93,1.54-2.25.21-2.46-.21-5.22-.21-5.22l-.1-8s1.23-7.68.21-9.52a3,3,0,0,1,.1-3.27s1.23-4.4,0-5.53-.93-8-.62-13.4-2.15-8.49-2.15-9.31-8.1-8.79-8.1-9.51-5.13-3.68-8.21-4.5-4.61-1.43-4.51-1.84-4.82-2-4.82-2-4.3-.31-5.95-2.45-6.65-2.78-6.8-2.79l-.09-.43-.09-.46c.38-.65.74-1.32,1.07-2,.1-.21.19-.41.28-.62a8.78,8.78,0,0,0,5.05-1.57,6.85,6.85,0,0,0,2.45-4.91,10.831,10.831,0,0,0-1.19-5.45c-.9-1.84-2.22-3.75-1.77-5.75.2-.86.72-1.62,1-2.46a6.5,6.5,0,0,0-.74-4.85c-.77-1.48-1.85-2.79-2.72-4.23a16.419,16.419,0,0,1-2.16-6,9.241,9.241,0,0,0-.8-3.26,6.24,6.24,0,0,0-1.8-1.82,18,18,0,0,0-11-3.34c-2.79.1-5.58.85-8.35.51a30.6,30.6,0,0,1-4.87-1.27c-3.44-1-7.41-1.44-10.4.53s-4.19,5.84-6.22,8.87c-1.8,2.67-4.42,4.92-5.79,7.76v-.17a9.859,9.859,0,0,0-.76,2.07,14.74,14.74,0,0,0,.45,6.78,4.72,4.72,0,0,0,1.66,3c1,.65,2.4.5,3.59.71-.05.19-.1.39-.14.58a23,23,0,0,0-.51,4.87A23.44,23.44,0,0,0,464,585.78v.62a16.374,16.374,0,0,1-.1,1.76h0s-10.31-2.12-13.07-.68-8.21,2.55-9,3.37-2.87.21-4.72,5-2.05,9.72-4.4,12-3.59,3.79-3.7,5.43.31,2-.61,2.55-2.26,2.66-1.85,3.48a2.9,2.9,0,0,1-1.13,3.07,3.41,3.41,0,0,0-1.43,3.07s-.62,2.25-2.05,2.76-2.36,3.89-2.36,3.89l-4.65,5.35-9.22-10.2a3.89,3.89,0,0,0-5.48-.28L395.69,631a8.939,8.939,0,0,0-4.53,2.7,11.749,11.749,0,0,0-2.34,3.49l-2.48,2.23a6.28,6.28,0,0,0-.64,6.95l5.91,6.53v.06a10.33,10.33,0,0,0-5.71,2.32c-8.81,7.78-8.92,14.94-7.58,18.21s12.51,15.86,12.51,15.86,6.49,8.44,15.86,12.93h0l-.07.07c-.19.2-.37.41-.55.64l-.15.2a1.423,1.423,0,0,0-.14.2l-.17.24-.13.2-.18.3-.11.19-.21.4s-.05.09-.07.13-.17.37-.25.56l-.09.21a1.12,1.12,0,0,1-.16.4l-.09.27a1.691,1.691,0,0,1-.13.4l-.09.29q-.06.21-.12.45a1.342,1.342,0,0,1-.07.27c-.02.09-.11.49-.16.74a2.5,2.5,0,0,0,0,.29,4.507,4.507,0,0,0-.09.53.972.972,0,0,1-.05.37,2.417,2.417,0,0,0-.07.51,2.522,2.522,0,0,0,0,.39v1.94c-.21,12,.49,13.71.49,13.71a6.64,6.64,0,0,0,5.44,4.08,7.175,7.175,0,0,0,1.76-.09c5.33-.93,17.84-3.07,22.25-2.25,2.65.49,7.56-.24,11.05-.9l.92-.18.64,2,2-.56,1.72,1,1.09.62c2,6.86,10.24,4.52,10.24,4.52l1.95,1.13,19.79.51a39.78,39.78,0,0,0,7,3.36,6.286,6.286,0,0,0,1,.22,44.383,44.383,0,0,0,5.51.1c1.52,0,2.69-.1,2.69-.1s-.2-5.37-.49-11.39a161.431,161.431,0,0,0,18.33-1.5c10.57-1.86,15-11.47,16.6-16.6a46.9,46.9,0,0,1,1,6.37,46.45,46.45,0,0,0,1.64,5.52,18.447,18.447,0,0,0,2.26,4.1c7.79-2.66,3.07-6.65,1.43-8.39s1.13-3.17,1.13-3.17,2.16-1.44,2-2.77-.31-2.76,6.67-2.66S556.16,703.48,556.16,703.48ZM447.88,638.16c.09.59,1.06,6.89,1.94,8.55a10.9,10.9,0,0,1,.23,3.37c-4.13-.33-8.43-.51-8.43-.51a1,1,0,0,1,.22.53l-.65-.15-.95-.23,7.62-11.57Zm-15.08,24,7.15,1.14.6.09a25.529,25.529,0,0,0-.37,3.38c0,.1.16.23.39.38a10.741,10.741,0,0,0-.14,1.69c.12.57,3.46,1.79,7.3,2.81-.06.2-.11.4-.16.58h0c-3.39-1.78-8.72-2.61-9.34-3.93s-18.76-7.67-18.76-7.67-.67-.35-1.81-.9l4.78.9,1.31-.13a71.472,71.472,0,0,0,9.05,1.65Z" transform="translate(-291.58 -73.2)" fill="url(#a)"/><path d="M496.22,574.73s-2.85,17.18-17.28,19.72-62.6,2-62.6,2-27.54-4-37.5-27.23-16.37-32.53-7.83-32.93,54.58,15.55,57.22,15.75S498.76,516.7,496.22,574.73Z" transform="translate(-254.98 60)" fill="#65617d"/><path d="M496.22,574.73s-2.85,17.18-17.28,19.72-62.6,2-62.6,2-27.54-4-37.5-27.23-16.37-32.53-7.83-32.93,54.58,15.55,57.22,15.75S498.76,516.7,496.22,574.73Z" transform="translate(-254.98 60)" opacity="0.05"/><path d="M367.03,593.8a6.59,6.59,0,0,0,5.37,4.1,7,7,0,0,0,1.74-.1c5.28-.91,17.68-3,22.05-2.23,2.63.49,7.5-.24,11-.89,2.3-.43,4-.84,4-.84s-4.06-13.52-4.57-13.92-18.33-11.12-18.33-11.12l-14.09-1h0a7.41,7.41,0,0,0-4.77,2.81c-1.49,1.8-2.77,4.75-2.85,9.59C366.33,592.11,367.03,593.8,367.03,593.8Z" transform="translate(-254.98 60)" fill="#3f3d56"/><path d="M367.03,593.8a6.59,6.59,0,0,0,5.37,4.1,57.67,57.67,0,0,1-3.82-5.58l.07-9.86a17.38,17.38,0,0,1,5.55-14.66h0s-7.42.51-7.62,12.4S367.03,593.8,367.03,593.8Z" transform="translate(-254.98 60)" opacity="0.05"/><path d="M428.13,572.29l13.11-10.26,20.63-20.33-5.59-.25c-.84.53-3.18,2.21-3.27,4.25-.1,2.48-5.57.17-8.42,1.59s-16.77,19.24-19.19,19.13-4.37-1.24-5.38.49a1,1,0,0,1-.08.11Z" transform="translate(-254.98 60)" opacity="0.1"/><path d="M369.4,570.63l1.42.65c10,4.27,22.25,13.21,23.17,14.84.56,1,7.69,5.32,13.19,8.56,2.3-.43,4-.84,4-.84s-4.06-13.52-4.57-13.92-18.32-11.12-18.32-11.12l-14.09-1h0a7.41,7.41,0,0,0-4.8,2.83Z" transform="translate(-254.98 60)" opacity="0.1"/><path d="M341.74,541.5c1.32,3.25,12.4,15.75,12.4,15.75s7,9.15,17,13.42,22.26,13.21,23.17,14.84c.59,1,8.53,5.82,14.12,9.11l1.26.73,2.77,1.61,1.47.84s3.4-2.73,6.79-5.48,6.68-5.44,6.73-5.59c.1-.31,1.42-3.76,1.11-4-.16-.1-.85-1.51-2.14-3.14a14.41,14.41,0,0,0-5.17-4.28,14.68,14.68,0,0,1-6.71-7s-.45-.32-1.12-.75a13.6,13.6,0,0,0-4.57-2c-2.24-.28-6.4-4.85-6.4-4.85a12.529,12.529,0,0,1-4-4.17c-1.07-2.23-16.83-13-18.29-14l38.24,24.49,9.15,5.87,13.11-10.26,20.63-20.33-6.81-.3c-10-.44-27.83-1.12-30.08-.61a17,17,0,0,1-5.59.36s-5.08.23-8.43-1.54-8.65-2.6-9.26-3.91-18.6-7.62-18.6-7.62-24.49-13-33.23-5.28S340.4,538.25,341.74,541.5Z" transform="translate(-254.98 60)" fill="#65617d"/><path d="M420.71,466.9l3.15,10.47,4.06,23.58,14.94,1,4.33-7.18,4.31-7.15s2.69-9.53,4.63-18.75c1.71-8.15,2.82-16.07,1-16.93-1.65-.76-2.73-3.51-3.44-6.46-.09-.36-.17-.73-.24-1.1a57.521,57.521,0,0,1-1-7.58s-31.31-1.63-26.94,11.28a20.379,20.379,0,0,1,1.18,6.86,16.332,16.332,0,0,1-.1,1.75A14.63,14.63,0,0,1,420.71,466.9Z" transform="translate(-254.98 60)" fill="#ee8e9e"/><path d="M414.2,465.17l1.12,17.79,2.54,15.14,2.85,7,2.54,38.36s24.5,2.84,30.46,0a2.609,2.609,0,0,0,1.08-.84c7.2-10.87,4.84-42.35,4.84-42.35l2.77-20.36-1.83-10.55-4.42-.47-3.41-.36s-.77.94-1.87,2.41c-3,4-8.56,11.8-8.19,15.07.51,4.47-.61,9-2.34,9.75s-3.15,1.94-3.45.72a5.5,5.5,0,0,1-.31-3.25c.31-1.73-1.32-7-1.32-7s-2.74-6.2-2.54-8.84-.3-5.69-1.12-6.4-1.93-1.43-1-4.68-4-9.58-4-9.58Z" transform="translate(-254.98 60)" fill="#e3e8f4"/><path d="M446.57,509.59l1,30.39,5.87,3.26a2.54,2.54,0,0,0,1.08-.85c7.2-10.87,4.84-42.35,4.84-42.35l2.74-20.33-1.83-10.55-4.42-.47c1.71-8.15,2.83-16.06,1-16.92-1.65-.77-2.74-3.51-3.44-6.46h0l-3.18,21.49s.27,1.93.36,3.93a11.13,11.13,0,0,1-.26,3.79c-.71,1.83-.2,5.08-.2,5.08-1.83,3.23-2.75,9.21-3.19,15C446.34,502.28,446.57,509.59,446.57,509.59Z" transform="translate(-254.98 60)" opacity="0.1"/><path d="M453.5,444.8s5.12.64,6.74,2.77,5.9,2.44,5.9,2.44,4.88,1.63,4.77,2,1.43,1,4.48,1.83,8.13,3.76,8.13,4.48,8,8.63,8,9.45,2.43,3.86,2.13,9.25-.61,12.19.61,13.31,0,5.49,0,5.49a3,3,0,0,0-.1,3.25c1,1.83-.21,9.45-.21,9.45l.11,7.93s-1.12,5,.2,5.18-.2,2.44-.2,2.44-1.12,4.07.3,5.9,1.83,9.65,1.83,9.65l21.75,31.61s.3,5.79-6.61,5.69-6.81,1.32-6.6,2.64-1.93,2.75-1.93,2.75-2.75,1.42-1.12,3.15,6.3,5.69-1.42,8.33a18.383,18.383,0,0,1-2.24-4.06,47.339,47.339,0,0,1-1.63-5.49s-.71-7.73-2.13-8.74-1.22-5.9-1.22-5.9,2-4-.81-5.59-44.11-24.49-44.11-24.49l-1-30.39s-.71-22.46,3.56-30c0,0-.51-3.25.2-5.08s-.1-7.73-.1-7.73Z" transform="translate(-254.98 60)" fill="#3f3d56"/><path d="M426.86,457.02s-10.22-2.11-13-.69-8.13,2.54-8.94,3.36-2.85.2-4.68,5-2,9.65-4.37,11.89-3.56,3.76-3.66,5.38.31,2-.61,2.54-2.23,2.65-1.83,3.46,21.14,18.7,21.14,18.7,1,6.81,1.93,8.54-1,25.51-3.05,27.13,13.76,1.47,13.76,1.47.72-15.6,1.33-16.42-.41-17.48-.41-17.48-.1-14.23,1.22-18,1.17-16.26,1.17-16.26,1.17-7.5,2.59-9.25S426.86,457.02,426.86,457.02Z" transform="translate(-254.98 60)" opacity="0.1"/><path d="M426.56,456.71s-10.22-2.1-13-.68-8.13,2.54-8.94,3.35-2.85.21-4.67,5-2,9.66-4.37,11.89-3.56,3.76-3.66,5.39.3,2-.61,2.54-2.24,2.64-1.83,3.46,21.14,18.7,21.14,18.7,1,6.81,1.93,8.53-1,25.51-3.05,27.14,13.72,1.47,13.72,1.47.71-15.6,1.32-16.41-.41-17.48-.41-17.48-.1-14.23,1.22-18,1.18-16.26,1.18-16.26,1.16-7.5,2.58-9.25S426.56,456.71,426.56,456.71Z" transform="translate(-254.98 60)" fill="#3f3d56"/><path d="M425.48,448.1a20.38,20.38,0,0,1,1.18,6.86A23.28,23.28,0,0,0,453.4,444.4a57.52,57.52,0,0,1-1-7.58S421.11,435.19,425.48,448.1Z" transform="translate(-254.98 60)" opacity="0.1"/><path d="M410.04,432.04a23.22,23.22,0,1,0,.5-4.84A23.22,23.22,0,0,0,410.04,432.04Z" transform="translate(-254.98 60)" fill="#ee8e9e"/><path d="M395.1,485.91l-5.59,1.73a2.88,2.88,0,0,1-1.12,3,3.39,3.39,0,0,0-1.42,3s-.61,2.24-2,2.75-2.33,3.86-2.33,3.86l-4.68,5.39s-1.73,1.42-1.42,2.13-1.83.91-1.83.91l1.12,18.1,9.65,1.82,6-.61,4.88-1.82,4.27-2.55,1.93-5,8.53-13Z" transform="translate(-254.98 60)" fill="#3f3d56"/><path d="M376.09,510.2s-12.4-17.89-21.65-8.23,3.76,25.3,6.81,24.79,17.59-1.32,17.59-1.32Z" transform="translate(-254.98 60)" fill="#ee8e9e"/><path d="M410.54,427.2a2.82,2.82,0,0,1,1.71.77c.78.83.82,2.3,1.85,2.82a2.16,2.16,0,0,0,1.21.14c2.7-.39,4.26-3.44,6.86-4.28a7,7,0,0,1,4.55.39,3.46,3.46,0,0,1,1.5,1c.87,1.13.26,2.78.66,4.14.56,1.89,2.81,2.64,4.77,2.88s4.15.39,5.45,1.86a5,5,0,0,1,1,3.93,3.139,3.139,0,0,0,0,1.46c.54,1.52,3.18,1.3,3.87.09.5-.87.35-1.6,1.53-1.84a5,5,0,0,1,2.49.43,18.111,18.111,0,0,0,6.44,1,23.28,23.28,0,1,0-43.84-14.74Z" transform="translate(-254.98 60)" opacity="0.1"/><path d="M440.05,441.67a3.14,3.14,0,0,1,0-1.46,5,5,0,0,0-1-3.93c-1.3-1.47-3.5-1.61-5.45-1.86s-4.21-1-4.77-2.88c-.4-1.36.21-3-.66-4.14a3.35,3.35,0,0,0-1.5-1,7,7,0,0,0-4.55-.4c-2.6.84-4.16,3.89-6.86,4.28a2.17,2.17,0,0,1-1.21-.14c-1-.52-1.07-2-1.85-2.82-1.24-1.31-3.58-.47-5.09-1.44a4.63,4.63,0,0,1-1.64-3,14.57,14.57,0,0,1-.45-6.74c.88-3.78,4.26-6.37,6.42-9.6,2-3,3.14-6.81,6.16-8.81s6.9-1.54,10.31-.53a28.858,28.858,0,0,0,4.83,1.27c2.74.34,5.5-.41,8.27-.5a17.72,17.72,0,0,1,10.92,3.32,6,6,0,0,1,1.78,1.8,9.081,9.081,0,0,1,.8,3.24,16.439,16.439,0,0,0,2.14,5.94c.86,1.43,1.93,2.73,2.7,4.21a6.43,6.43,0,0,1,.73,4.81c-.26.84-.77,1.59-1,2.45-.45,2,.86,3.88,1.75,5.71a10.78,10.78,0,0,1,1.19,5.42,6.84,6.84,0,0,1-2.44,4.87,8.72,8.72,0,0,1-5.15,1.56,18.329,18.329,0,0,1-6.57-1,5,5,0,0,0-2.48-.43c-1.19.24-1,1-1.54,1.84C443.23,442.97,440.59,443.19,440.05,441.67Z" transform="translate(-254.98 60)" fill="#3f3d56"/><path d="M427.52,572.9l13.11-10.26,20.63-20.33-6.81-.3a4.44,4.44,0,0,0-1.44,2.77c-.1,2.49-5.57.18-8.42,1.6s-16.77,19.24-19.19,19.12-4.37-1.23-5.38.49l-.08.12a2.89,2.89,0,0,1-1.55.92Z" transform="translate(-254.98 60)" opacity="0.1"/><path d="M401.09,572.19l6.59,21,1,3.3,3.14-.86,6.92-1.9,30.8-8.46a26.719,26.719,0,0,0,11.09-3,33.53,33.53,0,0,1,19.14-4.18c4.07.38,8.6-1.37,12.36-8.32,0,0,8.53-25.2-13-32.41s-22.58,3.83-22.58,3.83l-.29.18c-.84.53-3.18,2.21-3.27,4.25-.1,2.48-5.57.17-8.42,1.59s-16.75,19.32-19.17,19.21-4.37-1.24-5.38.49a1,1,0,0,1-.08.11c-.75,1-3,1.28-4.51,1.32h-1.41l-.19.06-1.56.46Z" transform="translate(-254.98 60)" fill="#65617d"/><path d="M402.8,531.34l3.17.51,1.32-13.11s-1.45-.22-3.27-.64C404.5,519.92,403.4,527,402.8,531.34Z" transform="translate(-254.98 60)" opacity="0.1"/><path d="M485.9,470.08s9.45-2.74,7.12,24.09-19.82,43.8-19.82,43.8-20.13,8.84-29.17,7.42-15.63-1.73-15.63-1.73a23.131,23.131,0,0,0-9.15-2.44c-5.08-.2-15.75-3.35-16-4.37s2.65-15.95,1.43-17.07c0,0,14.23.58,15.65,1.61s3.45.29,5,0,6.2-4.35,15.45-.8c0,0,3.15.31,4.37-.51a4.38,4.38,0,0,1,3.18-.2,8.74,8.74,0,0,0,2.2-1.12c.31-.4,2.75,0,2.75,0a1.08,1.08,0,0,0,1.52-.71,6.66,6.66,0,0,1,1.42-2.23s2.75-15.45,7.93-21.24a3.32,3.32,0,0,0,1.12-2.95C464.86,490,473.7,466.8,485.9,470.08Z" transform="translate(-254.98 60)" opacity="0.1"/><path d="M412.25,568.85l13.42,16.25.09-.1c.1-.3,1.42-3.76,1.11-4s-2.64-5.29-7.32-7.42a13.93,13.93,0,0,1-5.74-5.23Z" transform="translate(-254.98 60)" opacity="0.1"/><path d="M412.4,596.96l1.47.84s3.4-2.73,6.79-5.48,6.68-5.44,6.73-5.59c.1-.31,1.42-3.76,1.11-4-.16-.1-.85-1.51-2.14-3.14-9.1-2.55-3.3,3.77-2.53,4.06,0,0-11.08-2.54-11.69,9.52A14.4,14.4,0,0,0,412.4,596.96Z" transform="translate(-254.98 60)" opacity="0.1"/><path d="M423.65,602.07l1.94,1.12,19.61.51a39.611,39.611,0,0,0,6.94,3.34,6.438,6.438,0,0,0,1,.22,45.719,45.719,0,0,0,5.47.1c1.5,0,2.66-.1,2.66-.1s-.93-24.74-1.63-27.34c-.33-1.25-2-1-3.6-.35a23.205,23.205,0,0,0-3.51,1.78s-8.33.8-9.66,1.52-5.08-.41-7.42,0-6.5-2.75-6.5-2.75c-11.38-3.76-5,3.25-4.17,3.56,0,0-11.07-2.54-11.68,9.52S423.65,602.07,423.65,602.07Z" transform="translate(-254.98 60)" fill="#3f3d56"/><path d="M452.01,592.52c.21,5.12,4.2,11.48,6.59,14.84,1.5,0,2.66-.1,2.66-.1s-.93-24.74-1.63-27.34c-.33-1.25-2-1-3.6-.35C454.06,583.26,451.84,588.39,452.01,592.52Z" transform="translate(-254.98 60)" fill="#565387"/><path d="M452.01,592.52c.21,5.12,4.2,11.48,6.59,14.84,1.5,0,2.66-.1,2.66-.1s-.93-24.74-1.63-27.34c-.33-1.25-2-1-3.6-.35C454.06,583.26,451.84,588.39,452.01,592.52Z" transform="translate(-254.98 60)" opacity="0.1"/><path d="M448.66,593.2c1.35,4.94,1.33,10.49,3.48,13.84a6.437,6.437,0,0,0,1,.22,45.719,45.719,0,0,0,5.47.1c1.5,0,2.66-.1,2.66-.1s-.93-24.74-1.63-27.34c-.33-1.25-2-1-3.6-.35a23.205,23.205,0,0,0-3.51,1.78S446.93,586.87,448.66,593.2Z" transform="translate(-254.98 60)" opacity="0.05"/><path d="M380.99,543.06s9.74,3.16,18,14.39Z" transform="translate(-254.98 60)" opacity="0.1"/><path d="M460.16,421.1l-.06.22a6.856,6.856,0,0,1-.34.85,6,6,0,0,1,.4-1.07Z" transform="translate(-254.98 60)"/><path d="M405.04,416.17a9.14,9.14,0,0,1,.75-2c-.05.17-.1.35-.14.53a14.58,14.58,0,0,0,.45,6.74,4.63,4.63,0,0,0,1.64,3c1.51,1,3.85.13,5.08,1.43.79.83.83,2.31,1.85,2.82a2,2,0,0,0,1.22.14c2.7-.38,4.26-3.43,6.86-4.27a6.86,6.86,0,0,1,4.54.39,3.35,3.35,0,0,1,1.51,1c.87,1.12.26,2.78.66,4.14.56,1.88,2.81,2.63,4.76,2.88s4.15.38,5.46,1.86a4.92,4.92,0,0,1,1,3.93,3.23,3.23,0,0,0,0,1.45c.54,1.53,3.18,1.3,3.87.1.5-.88.35-1.6,1.53-1.85a5.1,5.1,0,0,1,2.49.43,18.311,18.311,0,0,0,6.57,1,8.86,8.86,0,0,0,5.15-1.56,6.15,6.15,0,0,0,1.58-1.93,6.5,6.5,0,0,1-2.19,3.45,8.72,8.72,0,0,1-5.15,1.56,18.3,18.3,0,0,1-6.57-1,5,5,0,0,0-2.49-.43c-1.18.24-1,1-1.53,1.84-.69,1.21-3.33,1.43-3.87-.09a3.27,3.27,0,0,1,0-1.46,4.92,4.92,0,0,0-1-3.93c-1.31-1.47-3.5-1.61-5.46-1.86s-4.2-1-4.76-2.88c-.4-1.36.21-3-.66-4.14a3.35,3.35,0,0,0-1.5-1,7,7,0,0,0-4.55-.4c-2.6.84-4.16,3.89-6.86,4.28a2.2,2.2,0,0,1-1.22-.14c-1-.52-1.06-2-1.85-2.82-1.23-1.31-3.57-.47-5.08-1.44a4.63,4.63,0,0,1-1.64-3A14.57,14.57,0,0,1,405.04,416.17Z" transform="translate(-254.98 60)"/><path d="M461.73,497.52c-1.86,2.51-4,4.84-5.63,7.5a14.229,14.229,0,0,0-2.47,8.87c1.7-1.75,2.48-4.17,3.56-6.36,1.82-3.72,4.54-6.87,6.83-10.28.44-.65,3.25-4.42,1.83-4.6C464.68,492.5,462.4,496.66,461.73,497.52Z" transform="translate(-254.98 60)" opacity="0.1"/><path d="M410.28,456.48,430.65,495c.61,1.14-1.05,3.21-3.7,4.62L325.28,553.39c-2.65,1.4-5.3,1.61-5.9.46l-20.37-38.51c-.61-1.15.92-3.46,3.57-4.86l101.67-53.77C406.91,455.3,409.68,455.33,410.28,456.48Z" transform="translate(-254.98 60)" fill="#c1d5ff"/><rect width="59.91" height="2.11" transform="translate(98.889 561.004) rotate(-27.87)" fill="#3c74f3"/><rect width="59.91" height="2.11" transform="translate(101.301 565.569) rotate(-27.87)" fill="#3c74f3" opacity="0.2"/><rect width="59.91" height="2.11" transform="translate(103.708 570.114) rotate(-27.87)" fill="#3c74f3" opacity="0.2"/><rect width="59.91" height="2.11" transform="translate(106.12 574.679) rotate(-27.87)" fill="#3c74f3" opacity="0.2"/><path d="M368.06,513.96c-.1,13.41,27.65,16.26,27.65,16.26l7.09,1.12,3.17.51,1.32-13.11s-1.45-.22-3.27-.64c-2.68-.63-6.16-1.71-6.89-3.23C395.91,512.33,368.16,500.54,368.06,513.96Z" transform="translate(-254.98 60)" fill="#ee8e9e"/><path d="M485.65,468.02s9.45-2.74,7.12,24.09-19.82,43.8-19.82,43.8-20.13,8.84-29.17,7.42-15.65-1.73-15.65-1.73a23.13,23.13,0,0,0-9.15-2.44c-5.08-.2-15.75-3.35-16-4.37s2.65-16,1.43-17.07c0,0,14.23.58,15.65,1.61s3.45.29,5,0,6.2-4.36,15.45-.8c0,0,3.15.31,4.37-.51a4.38,4.38,0,0,1,3.18-.2,8.738,8.738,0,0,0,2.2-1.12c.31-.4,2.75,0,2.75,0a1.07,1.07,0,0,0,1.52-.71,6.759,6.759,0,0,1,1.42-2.24s2.75-15.44,7.93-21.24a3.29,3.29,0,0,0,1.12-2.94C464.61,487.94,473.46,464.8,485.65,468.02Z" transform="translate(-254.98 60)" fill="#3f3d56"/><path d="M878.16,136.14v56c0,1.67-3.12,3-7,3H723.4c-3.86,0-7-1.35-7-3v-56c0-1.67,3.12-3.37,7-3.37H871.18C875.04,132.8,878.16,134.47,878.16,136.14Z" transform="translate(-254.98 60)" fill="#fff"/><path d="M876.3,137.239v56c0,1.66-3.13,3-7,3H721.575c-3.86,0-7-1.36-7-3v-56c0-1.67,3.12-3.37,7-3.37h147.75C873.175,133.869,876.3,135.569,876.3,137.239Z" transform="translate(-254.98 60)" fill="#3c74f3"/><path d="M878.16,136.14v56c0,1.67-3.12,3-7,3H723.4c-3.86,0-7-1.35-7-3v-56c0-1.67,3.12-3.37,7-3.37H871.18C875.04,132.8,878.16,134.47,878.16,136.14Z" transform="translate(-254.071 60)" fill="#c1d5ff"/><rect width="76.96" height="2.72" transform="translate(532.44 212.77)" fill="#3c74f3"/><rect width="76.96" height="2.72" transform="translate(532.44 219.39)" fill="#3c74f3" opacity="0.2"/><rect width="76.96" height="2.72" transform="translate(532.44 226.01)" fill="#3c74f3" opacity="0.2"/><rect width="76.96" height="2.72" transform="translate(532.44 232.63)" fill="#3c74f3" opacity="0.2"/><path d="M961.57,727.42c-1.38-5-2.28-9.38-2.28-9.38s.06-5.49-2.56-9.51l-.05-1.37h0l-.4-10.16a34.229,34.229,0,0,1,2.36-5.4c1.7-3.25-.57-14.85-.57-14.85s-7.4-16.19-6.15-26.68-15.67-45.79-15.67-45.79A46,46,0,0,1,937.32,594a8.182,8.182,0,0,0,.11-2.16,2.281,2.281,0,0,0,0-.26v.08c-.5-6.87-6.43-19.55-6.43-19.55l-.22-24.61s2.92-14.63-3.5-33.86c-2.24-6.71-3.71-12.1-4.67-16.26-.11-.47-.22-.92-.31-1.36,11.59-2.22,20.43-4,20.43-4s-7.84-28-12.6-32.8-9-20.19-9-20.19-3.14-19.89.47-25.87S925.35,397,925.35,397s8.52-6.71,9.51-9.58,2.57-9.31,2.44-12.66-1.34-6.33-1-8.11-2.89-8.39-1.55-11.63a8.623,8.623,0,0,0,.47-3.09v-.13a43.128,43.128,0,0,0-1.09-8.26,23.54,23.54,0,0,0-8.86-4.31l-.22-.75-.57-2c-.3-.18-.59-.34-.88-.48v-.72l-.19-2.87,1.12-6.51c2.27-11.33-12.78-12.43-12.78-12.43a7.82,7.82,0,0,0-4.38-3.55c-3.06-1,.14,16.91,1.6,18,1.09.82,4.58,6.32,6.26,9h0l.28.44a6.813,6.813,0,0,0-.66.75l.72,3.87.11.6a15.677,15.677,0,0,0-2.23,4.16s2.85,2.9,2.43,6.28,1.13,7.52,1.21,7.74c-.17-.18-2.18-2.19-4.08-1.6s-7.23,2.4-7.23,2.4-4,.86-3.59,1.73-2.55,4.88-2.55,4.88l-11.2-9.82c-.12-.3-.24-.6-.35-.91a25.628,25.628,0,0,1-1.11-4.45,24.323,24.323,0,0,0,3.41-1.23,7.469,7.469,0,0,0,2.92-2c1-1.33,1.18-3.1,1.56-4.72.73-3.18,2.46-6.05,3.66-9.09A29.07,29.07,0,0,0,900,319.89a10.66,10.66,0,0,0-1.84-4.63c-1.86-2.36-5.09-3.23-7.49-5.07s-4-4.74-6.78-6.09c-2.5-1.22-5.48-1-8.22-.39a43.87,43.87,0,0,0-15.1,6.15c-1.53,1-3.22,2.14-5,1.88-1.56-.22-2.74-1.42-3.79-2.57a.832.832,0,0,1,0-.15l-.13-.13a19.091,19.091,0,0,0-1.36,8.14,5.614,5.614,0,0,0,.1,1.29v.45a2.415,2.415,0,0,1,0,.38h0a2.29,2.29,0,0,1-.06.58,4.16,4.16,0,0,1-1,1.49,9,9,0,0,0-.84,1.24,1.531,1.531,0,0,1,.13-.45,6.32,6.32,0,0,0-1,3.45,3.4,3.4,0,0,0,.9,2.41,11.753,11.753,0,0,0,1.82,1.35,19.529,19.529,0,0,0-.19,3.6,20.91,20.91,0,0,0,10.86,17.43c.14.3.27.6.41.91,1.52,3.58,2.72,7.77,2.41,11.7a6.122,6.122,0,0,1-.1.86c-.04.28-.26.31-.37.47h0s-17.83.86-22.17-2.78-10.24,9.69-10.24,9.69-6.34,1.49-7.67.3-8.78.16-8.78.16a16.08,16.08,0,0,0-11.29-3.64,33.091,33.091,0,0,0-8.36-4.23h0l-.21-.06h0a9.18,9.18,0,0,0-4-.36s-9.05-6.91-11.76-10.7-15.44-17.75-15.5-17.82l-.07-.69-.22-2.1a7.549,7.549,0,0,1-1.09.14l-.27-.72a38.5,38.5,0,0,0-2.82-5.84s-.1-2.66.65-3.35-.72-10.38-.72-10.38-8.61-18.17-15.16-4.1c0,0-13,9.44-1.41,19.39,0,0,4.57,2,5.27,3.7.46,1.1,2.1,4.16,3.2,6.19.18.34.35.64.49.91l-.12.11.23,1.73.09.67c-2.06,1.28-3.45,2.53-3.07,3.42a19.329,19.329,0,0,1,1.46,4.72s16.28,18.85,18.61,27.09c0,0,42.6,23.15,56.37,24.39L823,412.47a98.628,98.628,0,0,0-.16,10.1c.28,2.65-1.08,14.74-1.08,14.74s-1.7,17.77-3.61,20.33S817,470.78,817,470.78a89.346,89.346,0,0,1-2.16,15.14c-1.75,6.79,0,15.05,0,15.05s-6.33,16.18,9.88,4.75c0,0,8.14-.82,17.52-1.5v.94c0,1.21.06,2.52.1,3.9.22,9.12.65,21.68,1.43,31.17C845.16,557,851.55,590,851.55,590l.64,16.7a22.945,22.945,0,0,0-.29,4.79,31,31,0,0,0,5.1,16.59l1.71,11.08s3.28,7.23,3.51,11.61a6.005,6.005,0,0,1-.09,1.07,7.4,7.4,0,0,0-.08,1.71c0,5.06,3.54,17.05,3.54,17.05s.65,12.19,2.5,12.83c1.59.54-1.81,7.11-2.83,9q-.049-.173-.08-.35c-.13.25-.21.38-.21.38a8.691,8.691,0,0,0-.45,3.11,4.42,4.42,0,0,0,2.19,4.21c3.55,2,5.48,3.68,2.57,4.5a31.02,31.02,0,0,0-3.2.81c0-.14-.12-.28-.17-.41a2,2,0,0,0-1.12,2.18,9.2,9.2,0,0,0,1.25,4.1c3.18,6.43,5.3,8.83,5.3,8.83l1.39-.21a7.276,7.276,0,0,1-.75,1.54,5.929,5.929,0,0,1-2,1.91,6.312,6.312,0,0,1-2.46,1,7,7,0,0,0-5.08,2.72c-1.73,2.42-2.75,5.68,1,8.36l13.24,4s22.58,2.06,21.19-2.94-2.28-9.38-2.28-9.38a20,20,0,0,0-2.17-8.87,11,11,0,0,0-.84-1.29l.79-.12s1.21-11.2,3.32-13.41c.49-.5.59-.88.46-1.17.2-.62-.38-1-1.13-1.12a1.6,1.6,0,0,1-.14.44,11.208,11.208,0,0,0-2.19-.16s-1-5.8,1.34-8a2.24,2.24,0,0,0,.39-1.75,9.474,9.474,0,0,0-.34-2.36.613.613,0,0,0-.07.14c-1.41-5.25-5.78-13.51-5.78-13.51s-.38-5.3,1-7.47-1.3-28.82-1.3-28.82.06-12.93-1.82-18.87,1.51-13.16,1.51-13.16a1.866,1.866,0,0,0-.06-.39v-.09s-.11-.79-.29-2a.656.656,0,0,1,0,.13c-.49-3.4-1.43-9.56-2-12.41-.89-4-.72-23.52-.72-23.52l3-8.44,6.4,14.1,6.95,18.86s3.23,3.91,3.46,8v.6a11,11,0,0,0,0,1.28,11.379,11.379,0,0,0,2.15,6.72s2,9,4.64,11.16,2.82,6.62,2.82,6.62,3.61,13,5.16,15.21c1.3,1.89,1.57,7.21,1.62,8.84h0v.48s.62,4.66.75,8.59v1.3a14.223,14.223,0,0,1-.26,3.19c0,.06,0,.12,0,.19v-.66a33.615,33.615,0,0,0-.62,8.18c.1,4.71,1,10.25,4,13.41,5.15,5.47,8.23,4.64,8.23,4.64s-2.1,7.16-5,8.69a2.108,2.108,0,0,0-.31.21,2.83,2.83,0,0,0-.08-.4,3.42,3.42,0,0,0-.76,2.66c-.09,3.12,2.07,8.1,4,10.35a5.819,5.819,0,0,0,2.52,1.34,4.9,4.9,0,0,1-.44.31,9.443,9.443,0,0,1-1,.51,4.9,4.9,0,0,1-1.48.44,7.05,7.05,0,0,0-5.08,2.72c-1.72,2.42-2.75,5.67,1,8.36l13.24,4S963,732.42,961.57,727.42Z" transform="translate(-291.58 -73.2)" fill="url(#b)"/><path d="M839.47,605.87l-12.82-4c-3.59-2.69-2.6-5.95-.93-8.37a6.75,6.75,0,0,1,4.91-2.71,6,6,0,0,0,2.38-1,5.6,5.6,0,0,0,1.93-1.91,9.36,9.36,0,0,0,1.26-4.94s13.72-4.6,17.68-.68a10.679,10.679,0,0,1,1.78,2.4,20.649,20.649,0,0,1,2.11,8.88s.88,4.38,2.22,9.38S839.47,605.87,839.47,605.87Z" transform="translate(-254.98 60)" fill="#2d293d"/><path d="M901.11,597.26l-12.81-4c-3.6-2.68-2.61-5.94-.94-8.35a6.68,6.68,0,0,1,4.91-2.71,5,5,0,0,0,1.43-.45,8.261,8.261,0,0,0,1-.51c3.47-2.08,3.19-6.85,3.19-6.85s13.73-4.6,17.68-.68a9.778,9.778,0,0,1,1.4,1.75c2.54,4,2.49,9.52,2.49,9.52s.88,4.4,2.22,9.39S901.11,597.26,901.11,597.26Z" transform="translate(-254.98 60)" fill="#2d293d"/><path d="M853.88,582.3a10.681,10.681,0,0,1,1.78,2.4h0l-20.72,3.21a9.36,9.36,0,0,0,1.26-4.94S849.92,578.38,853.88,582.3Z" transform="translate(-254.98 60)" opacity="0.1"/><path d="M916.92,575.44l.15,3.9c-3,5.46-18.72,4.89-23.37,2.39a8.265,8.265,0,0,0,1-.51c3.47-2.08,3.19-6.85,3.19-6.85s13.73-4.6,17.68-.68A9.781,9.781,0,0,1,916.92,575.44Z" transform="translate(-254.98 60)" opacity="0.1"/><path d="M918.75,558.56a34.318,34.318,0,0,0-2.27,5.4l.53,14c-3.31,6-21.77,4.74-24.37,1.65s-5.57-11.29-2.79-12.82,4.8-8.68,4.8-8.68-3,.82-8-4.65-4.06-18.08-3.29-21.12-.51-13.09-.51-13.09-.09-7.08-1.59-9.32-5-15.21-5-15.21-.17-4.42-2.73-6.63-4.5-11.16-4.5-11.16a11.6,11.6,0,0,1-2.06-7.53c.36-4.44-3.36-9.08-3.36-9.08l-6.75-18.86-6.21-14.11-2.85,8.45s-.14,19.48.73,23.52,2.34,14.78,2.34,14.78-3.27,7.21-1.44,13.16,1.79,18.88,1.79,18.88,2.61,26.63,1.28,28.81-1,7.47-1,7.47,7.85,15.28,5.63,17.49-1.29,8-1.29,8,5-.19,2.92,2-3.21,13.41-3.21,13.41l-21.28,3.3s-2.06-2.4-5.14-8.84.31-5.85,3.13-6.67,1-2.51-2.49-4.51-1.68-6.84-1.68-6.84,4.79-8.86,3-9.5-2.44-12.83-2.44-12.83-4.09-14.36-3.36-18.29-3.34-13.15-3.34-13.15l-1.66-11.09a30.64,30.64,0,0,1-4.7-20.89l-.62-17.21s-6.23-33-7.58-49.82c-.87-10.74-1.31-25.42-1.51-34.59-.11-5.14-.15-8.55-.15-8.55l76.07-10.89a63.516,63.516,0,0,0,1.82,11.29c.94,4.16,2.37,9.55,4.55,16.26,6.23,19.24,3.43,33.87,3.43,33.87l.24,24.6s7.35,16.18,6.15,21.9a47.547,47.547,0,0,0-1,10.31s16.41,35.31,15.22,45.8,6,26.69,6,26.69S920.4,555.31,918.75,558.56Z" transform="translate(-254.98 60)" fill="#65617d"/><path d="M871.53,468.12l23.13-4S882.01,478.08,871.53,468.12Z" transform="translate(-254.98 60)" opacity="0.05"/><path d="M890.4,441.54s1.11,8.19-3.81,11.48C886.62,453.02,895.59,451.26,890.4,441.54Z" transform="translate(-254.98 60)" opacity="0.1"/><path d="M888,415.43s-18.82,16.75-26,15.7S888,415.43,888,415.43Z" transform="translate(-254.98 60)" opacity="0.1"/><path d="M843,476.8s-14.63,3.92-14.84,9.86S843,476.8,843,476.8Z" transform="translate(-254.98 60)" opacity="0.1"/><path d="M849.09,550.35s-20.69,4.69-14.69,7.11,15.83,4.18,15.83,4.18S856.96,561.73,849.09,550.35Z" transform="translate(-254.98 60)" opacity="0.05"/><path d="M830.4,561.8a4.15,4.15,0,0,1-2-2.95c-.12.24-.2.38-.2.38s-1.76,4.84,1.68,6.84c.4.23.77.45,1.12.67.62-.14,1.28-.25,1.92-.44C835.66,565.53,833.79,563.8,830.4,561.8Z" transform="translate(-254.98 60)"/><path d="M857.17,559.39c.55-.55.48-1.91.06-3.64a9.821,9.821,0,0,0-1,5.16A4.1,4.1,0,0,1,857.17,559.39Z" transform="translate(-254.98 60)"/><path d="M850.57,471.55a24,24,0,0,0-1.16,6.56,25.515,25.515,0,0,1,1.45-4.53S850.75,472.8,850.57,471.55Z" transform="translate(-254.98 60)"/><path d="M897.98,460.43a7.86,7.86,0,0,0,.12-1.94c-.21,1.33-.35,2.56-.44,3.64C897.76,461.58,897.86,461.01,897.98,460.43Z" transform="translate(-254.98 60)"/><path d="M852.49,534.42a11.241,11.241,0,0,0,.37-3.94,13.308,13.308,0,0,0-.82,5A4.813,4.813,0,0,1,852.49,534.42Z" transform="translate(-254.98 60)"/><path d="M858.15,567.6a69.583,69.583,0,0,0-2,11l-21.28,3.3s-2.05-2.4-5.13-8.83c-.27-.57-.49-1.08-.67-1.54-1.26.64-1.71,2,.12,5.81,3.08,6.43,5.14,8.83,5.14,8.83l21.28-3.3s1.16-11.2,3.2-13.4C859.8,568.34,859.11,567.8,858.15,567.6Z" transform="translate(-254.98 60)"/><path d="M828.68,536.93s.65,12.2,2.44,12.84h0c.82-2.05,1.34-4,.54-4.27-1.8-.64-2.44-12.84-2.44-12.84s-4.1-14.36-3.36-18.28-3.34-13.15-3.34-13.15l-1.67-11.09a30.64,30.64,0,0,1-4.7-20.89l-.66-17.15s-6.23-33-7.58-49.82c-.87-10.74-1.31-25.43-1.51-34.59,0-1.66-.06-3.13-.09-4.37l-.61.09s0,3.4.16,8.55c.2,9.16.64,23.85,1.5,34.59,1.36,16.77,7.59,49.82,7.59,49.82l.66,17.15a30.64,30.64,0,0,0,4.7,20.89l1.66,11.09s4.08,9.22,3.34,13.15S828.68,536.93,828.68,536.93Z" transform="translate(-254.98 60)"/><path d="M893.17,574.8a20.68,20.68,0,0,1-3.7-8.26c-2.11,2,.69,9.6,3.16,12.53,2.6,3.09,21.06,4.33,24.37-1.64l-.13-3.37C912.28,579,895.63,577.74,893.17,574.8Z" transform="translate(-254.98 60)"/><path d="M919.28,553.8a34.318,34.318,0,0,0-2.27,5.4l.09,2.48c.37-.92.9-2.15,1.64-3.61a10.732,10.732,0,0,0,.6-4.41Z" transform="translate(-254.98 60)"/><path d="M893.6,557.59a33.386,33.386,0,0,0,1.58-4.27s-3,.82-8-4.65c-3.63-4-4.13-11.75-3.83-16.85-.77,3-1.7,15.65,3.29,21.12C889.93,556.52,892.33,557.4,893.6,557.59Z" transform="translate(-254.98 60)"/><path d="M882.87,518.74a95.993,95.993,0,0,1,.76,10.46,12.909,12.909,0,0,1,.3-1.65c.77-3-.51-13.08-.51-13.08s-.1-7.08-1.6-9.33-5-15.21-5-15.21-.17-4.42-2.74-6.62-4.5-11.16-4.5-11.16a11.64,11.64,0,0,1-2.06-7.54c.36-4.44-3.36-9.07-3.36-9.07l-6.76-18.87-6.21-14.1L848.33,431v2.69l2.33-6.85,6.21,14.1,6.74,18.86s3.72,4.63,3.36,9.07a11.58,11.58,0,0,0,2.06,7.54s1.93,9,4.5,11.16,2.73,6.62,2.73,6.62,3.51,13,5,15.21S882.87,518.74,882.87,518.74Z" transform="translate(-254.98 60)"/><path d="M885.2,192.87l-1.08,6.51.19,2.87.14,2.12-7.35,1-.89-1.5h0c-1.63-2.71-5-8.22-6.08-9-1.4-1.09-4.53-18.95-1.57-18a7.75,7.75,0,0,1,4.26,3.56S887.4,181.55,885.2,192.87Z" transform="translate(-254.98 60)" fill="#ffcdd3"/><path d="M884.45,204.37l-7.35,1-.89-1.5h0a6.52,6.52,0,0,1,8.1-1.66Z" transform="translate(-254.98 60)" opacity="0.1"/><path d="M886.4,207.8l-9.64,2.63-.26-1.44-.7-3.88s3.65-5.28,9.37-1.64l.56,2Z" transform="translate(-254.98 60)" fill="#dce6f2"/><path d="M728.31,199.62l-10.17,6s-.43-.8-1-1.92c-1.07-2-2.66-5.1-3.11-6.2-.68-1.69-5.1-3.7-5.1-3.7-11.27-10,1.34-19.39,1.34-19.39,6.32-14.06,14.67,4.12,14.67,4.12s1.44,9.69.71,10.38-.62,3.34-.62,3.34a39.294,39.294,0,0,1,2.73,5.85C728.12,199.02,728.31,199.62,728.31,199.62Z" transform="translate(-254.98 60)" fill="#ffcdd3"/><path d="M728.31,199.62l-10.17,6s-.43-.8-1-1.92c1.41-1.28,6.45-5.7,8.16-5.57a13.192,13.192,0,0,0,2.46,0C728.12,199.02,728.31,199.62,728.31,199.62Z" transform="translate(-254.98 60)" opacity="0.1"/><path d="M729.49,202.72l-11.45,6.2-.33-2.5-.23-1.73s6.54-6.05,8.55-5.91a10.82,10.82,0,0,0,3-.12l.22,2.09Z" transform="translate(-254.98 60)" fill="#dce6f2"/><path d="M858.56,236.8s-50.66,7.7-41.27,4.25c6.54-2.42,9-6.73,9.38-11.41.29-3.93-.87-8.12-2.35-11.71a51.1,51.1,0,0,0-4.9-9s38.07-22.89,31-3.14a30.937,30.937,0,0,0-1.85,9.3,26,26,0,0,0,1.36,9.29A27.8,27.8,0,0,0,858.56,236.8Z" transform="translate(-254.98 60)" fill="#ffcdd3"/><path d="M850.46,205.8a30.94,30.94,0,0,0-1.85,9.3c-3.54,3.22-7.57,3.17-12.73,3.37-4,.15-8.32,1.28-11.56-.51a51.1,51.1,0,0,0-4.9-9S857.49,186.06,850.46,205.8Z" transform="translate(-254.98 60)" opacity="0.1"/><circle cx="21.06" cy="21.06" r="21.06" transform="translate(558.4 237.75)" fill="#ffcdd3"/><path d="M858.56,236.8s-50.66,7.7-41.27,4.25c6.54-2.42,9-6.73,9.38-11.41,2.43-2.85,7.44-5,10.67-6.2a15.19,15.19,0,0,1,9.21-.5,12.829,12.829,0,0,1,3.42,1.42,27.8,27.8,0,0,0,8.59,12.44Z" transform="translate(-254.98 60)" opacity="0.1"/><path d="M886.4,207.8l-9.64,2.63-.26-1.44a8.62,8.62,0,0,1,9.23-3.56Z" transform="translate(-254.98 60)" opacity="0.1"/><path d="M729.49,202.72l-11.45,6.2-.33-2.5a84.766,84.766,0,0,1,11.58-5.62Z" transform="translate(-254.98 60)" opacity="0.1"/><path d="M883.62,364.28c-19.58,3.87-47.47,9-52,7.81-3.74-1-15.52-.41-25.77.34-.11-5.14-.15-8.55-.15-8.55l76.07-10.89a63.525,63.525,0,0,0,1.85,11.29Z" transform="translate(-254.98 60)" opacity="0.1"/><path d="M903.1,358.9s-64.46,13.63-71.51,11.78-42.71,1.82-42.71,1.82c-15.67,11.4-9.57-4.77-9.57-4.77s-1.73-8.25,0-15.05a92.445,92.445,0,0,0,2.07-15.13s-.76-10.59,1.09-13.14,3.47-20.32,3.47-20.32,1.3-12.09,1-14.74a96.227,96.227,0,0,1,.15-10.09l1.8-12.46c-13.33-1.26-54.59-24.46-54.59-24.46-2.27-8.23-18-27.1-18-27.1a20.3,20.3,0,0,0-1.42-4.73c-1.17-2.79,14.53-9.06,14.53-9.06s12.4,14,15,17.84,11.39,10.72,11.39,10.72a8.5,8.5,0,0,1,3.91.35l.2.06h0a31.661,31.661,0,0,1,8.09,4.24,15.36,15.36,0,0,1,10.94,3.65s7.21-1.34,8.49-.15,7.43-.28,7.43-.28,5.68-13.33,9.89-9.68,21.47,2.8,21.47,2.8c2.18-3.14,7.69-5.55,11.15-6.81a15.19,15.19,0,0,1,9.21-.51,11.821,11.821,0,0,1,3.71,1.62l10.86,9.85s2.86-4,2.47-4.88,3.48-1.72,3.48-1.72,5.06-1.79,7-2.4,3.78,1.44,3.95,1.61c-.08-.22-1.57-4.45-1.18-7.74s-2.37-6.28-2.37-6.28c5.61-15.44,20.06-3.25,20.06-3.25s1.92,8.25.62,11.49,1.8,9.84,1.51,11.62.89,4.75,1,8.11-1.39,9.79-2.34,12.66-9.2,9.56-9.2,9.56-.14,10.1-3.63,16.08-.42,25.87-.42,25.87,4.14,15.42,8.75,20.2S903.1,358.9,903.1,358.9Z" transform="translate(-254.98 60)" fill="#3f3d56"/><path d="M804.03,246.2s-2.17-5.76-4-6.22a42.429,42.429,0,0,1-5.21-2.1l1-2.22s6.71,1.56,7.85,3.47S804.03,246.2,804.03,246.2Z" transform="translate(-254.98 60)" opacity="0.1"/><path d="M768,234.66c-.29,1.78-16,4-16,4l7.65-8.29h0l.2.06h0A31.66,31.66,0,0,1,768,234.66Z" transform="translate(-254.98 60)" opacity="0.1"/><circle cx="1.42" cy="1.42" r="1.42" transform="translate(465.14 270.72)" fill="#575988"/><circle cx="1.42" cy="1.42" r="1.42" transform="translate(467.06 273.48)" fill="#575988"/><circle cx="1.42" cy="1.42" r="1.42" transform="translate(468.93 276.02)" fill="#575988"/><circle cx="1.42" cy="1.42" r="1.42" transform="translate(470.89 278.78)" fill="#575988"/><circle cx="1.15" cy="1.15" r="1.15" transform="translate(637.82 272.48)" fill="#575988"/><circle cx="1.15" cy="1.15" r="1.15" transform="translate(638.1 275.08)" fill="#575988"/><circle cx="1.15" cy="1.15" r="1.15" transform="translate(638.35 277.68)" fill="#575988"/><path d="M805.96,294.11c-.17-.2,41.62,48.6,71.45,18.32C877.4,312.43,828.77,320.94,805.96,294.11Z" transform="translate(-254.98 60)" opacity="0.1"/><path d="M784.07,321.16s23.88-.27,26.64,6.49l.27,7.14a4.55,4.55,0,0,1-4.44.17c-2.45-1.2-17.15-8-22.1-4.25Z" transform="translate(-254.98 60)" opacity="0.1"/><path d="M784.52,321.14s22.83-.26,25.47,6.19l.26,6.81a4.38,4.38,0,0,1-4.25.16c-2.34-1.15-16.4-7.6-21.13-4.05Z" transform="translate(-254.98 60)" fill="#656691"/><path d="M795.1,268.87a76.726,76.726,0,0,0,9.86,15.51,62.229,62.229,0,0,0,15,13.42S795.62,272.13,795.1,268.87Z" transform="translate(-254.98 60)" opacity="0.1"/><path d="M786.23,241.46s4.64,17,15.12,22.46Z" transform="translate(-254.98 60)" opacity="0.1"/><path d="M780.2,243.43c-.12-.32-3,13.72,14,20.76C794.23,264.19,787.02,262.05,780.2,243.43Z" transform="translate(-254.98 60)" opacity="0.1"/><path d="M883.89,227.9c-.26,0,8.48,5.11,10.89,7.55C894.78,235.45,888.92,227.35,883.89,227.9Z" transform="translate(-254.98 60)" opacity="0.1"/><path d="M829.48,218.1a3.31,3.31,0,0,0,3.75,3.15c6.43.15,13.12.18,19-2.52a7.16,7.16,0,0,0,2.81-2c1-1.33,1.14-3.09,1.51-4.72.71-3.17,2.37-6,3.54-9.08a30.07,30.07,0,0,0,1.42-16.13,10.74,10.74,0,0,0-1.78-4.63c-1.8-2.37-4.94-3.23-7.26-5.08s-3.89-4.75-6.57-6.1c-2.42-1.22-5.31-1-8-.4a41.76,41.76,0,0,0-14.6,6.14c-1.49,1-3.12,2.13-4.89,1.87-1.55-.23-2.71-1.48-3.75-2.65a19.61,19.61,0,0,0-1.22,9.23,4,4,0,0,1,0,1.38,4.241,4.241,0,0,1-.93,1.49c-1.51,1.9-2.39,4.85-.75,6.64.71.79,1.77,1.19,2.47,2,1.24,1.43.92,3.57,1,5.46a2.769,2.769,0,0,0,.54,1.85,2.73,2.73,0,0,0,2.62.52,7.07,7.07,0,0,1,2.75-.37,4.58,4.58,0,0,1,2.48,1.76C826.75,209.52,828.06,213.62,829.48,218.1Z" transform="translate(-254.98 60)" fill="#2d293d"/><path d="M855.65,215.05a7.17,7.17,0,0,1-2.82,2c-5.84,2.7-12.52,2.68-18.95,2.52a3.31,3.31,0,0,1-3.76-3.14c-1.41-4.49-2.73-8.59-5.84-12.24a4.6,4.6,0,0,0-2.47-1.76,7.31,7.31,0,0,0-2.76.37,2.73,2.73,0,0,1-2.62-.52,2.83,2.83,0,0,1-.54-1.85c0-1.89.28-4-1-5.46-.69-.8-1.76-1.2-2.47-2a4.16,4.16,0,0,1-.57-4.21c-1.05,1.83-1.45,4.14-.08,5.65.71.78,1.78,1.18,2.47,2,1.24,1.43.93,3.57,1,5.47a2.76,2.76,0,0,0,.54,1.84,2.7,2.7,0,0,0,2.62.52,7.28,7.28,0,0,1,2.76-.37,4.65,4.65,0,0,1,2.47,1.76c3.11,3.66,4.42,7.75,5.84,12.24a4.45,4.45,0,0,0,1.75,2.78,4.51,4.51,0,0,0,2,.37c6.43.15,13.12.17,19-2.53a7.25,7.25,0,0,0,2.82-2,5.722,5.722,0,0,0,.84-1.74,2.91,2.91,0,0,1-.23.3Z" transform="translate(-254.98 60)"/><path d="M813.53,185.97a3,3,0,0,0,.6-1.09,3.772,3.772,0,0,0,0-1.38,19.59,19.59,0,0,1,.7-7.65l-.13-.14a19.641,19.641,0,0,0-1.22,9.23,5.942,5.942,0,0,1,.05,1.03Z" transform="translate(-254.98 60)"/><path d="M826.22,231s26.42,2.48,28.63-1.57" transform="translate(-254.98 60)" opacity="0.1"/><path d="M876.9,218.16s14.6-.54,18,4.81" transform="translate(-254.98 60)" opacity="0.1"/><path d="M161.71,172.05v56c0,1.67-3.13,3-7,3H6.98c-3.86,0-7-1.35-7-3v-56c0-1.67,3.12-3.37,7-3.37H154.73C158.58,168.68,161.71,170.38,161.71,172.05Z" transform="translate(-254.98 60)" fill="#fff"/><path d="M161.71,172.05v56c0,1.67-3.13,3-7,3H6.98c-3.86,0-7-1.35-7-3v-56c0-1.67,3.12-3.37,7-3.37H154.73C158.58,168.68,161.71,170.38,161.71,172.05Z" transform="translate(-254.98 60)" fill="#c1d5ff"/><rect width="76.96" height="2.72" transform="translate(-184.01 248.68)" fill="#3c74f3"/><rect width="76.96" height="2.72" transform="translate(-184.01 255.3)" fill="#3c74f3" opacity="0.2"/><rect width="76.96" height="2.72" transform="translate(-184.01 261.92)" fill="#3c74f3" opacity="0.2"/><rect width="76.96" height="2.72" transform="translate(-184.01 268.54)" fill="#3c74f3" opacity="0.2"/><path d="M300,476.46a60.5,60.5,0,0,1-1-9.21c0-3.7-5-7-5-7s-3.11-7.2-5.15-8.25-8.47-10.48-8.47-10.48a8.54,8.54,0,0,0-1.93-5.08,72.783,72.783,0,0,1-5.24-7.91h0c-.86-1.06-.43-1.8-1.72-7.94q-.11-.48-.24-.93a1.378,1.378,0,0,0-.13-.39c2.8-2.818-3.23-5.618-4.54-9.37-.238-.73-7.765.516-8.333,0-1.46-1.19-3.5-1.87-5-3v-4.2c.39-1.72-1.333-6-1.333-6l-1.083-5.25-1.25-4.74-1.25-4.14s-.625-2.59-1.25-4.62.126-2.2,0-3.5a17.954,17.954,0,0,1,0-4.75l-1.5-5-4-6.83-4-3.92-4.25-2.11-6.25-1.64h-8.75l-3.55,1.64-3.45,2.11s-3.77,2.22-2.48,2.84h0s-.69.71-1,1.08A22.72,22.72,0,0,0,202.22,373a23.05,23.05,0,0,0,14,21.11c-.06.19-.11.37-.18.56a29.718,29.718,0,0,1-1.26,3.27,6.48,6.48,0,0,0-5.43.6c-2.47,1.69-7.29,1.59-8.58,1.27s-14.69-2-15.76-1.59-3.22-1.48-4.61,1.06-2,3.92-3.43,4.55-3.86,2.65-3.54,3.07-3.54,3-3.54,3-3.32,3.49-5.25,3.92-6,3.07-6,3.07l-4.72,3.7s-3.54.53-2.47-1.9-1.93-5.51-1.93-5.51-6-12.17-6-14.7-4.93-13.23-4.93-13.23l-.61-.06c-.09-.26-.18-.52-.28-.79a74.637,74.637,0,0,0-3-7.51c-1.7-3.49-2.8-3.89-2.8-3.89s-20.8-15.62-34.31-10.86,24.66,18.94,28.09,20.43c1.2.51,2.06,2.19,2.67,4.14A17.77,17.77,0,0,0,121,393.4s8.25,18.3,8.46,22.85,5.69,17.25,5.69,17.25,2,9.42,13.08,8.89c0,0,15.22,2.79,18.54,0s6.33-5,7.94-5.31a6.251,6.251,0,0,0,3-2.12s-5,31.74-7.5,34.5-24.34,38.41-16.52,44.75a156.793,156.793,0,0,0,19.62,13l24.21-34.92-12.65,86.35a14.8,14.8,0,0,0,5.8,1.39c.1.41.22.84.34,1.29,1.89,7.14,4.95,18.18,6.51,21.12,2.37,4.45,4.08,18.52,4.08,18.52s1.39,13.86.86,15.77c-.21.73.7,6.48,2.12,13.78h0c-.87,9.92-2.5,29.05-2.78,36h0v1.16h0a7.858,7.858,0,0,0,0,1.3,4.07,4.07,0,0,1-.14,2,32.129,32.129,0,0,1-2.33,5.54,26.537,26.537,0,0,0-1,2.69c-.85.37-1.91,1.3-2.5,3.55-1.07,4.13-2.68,15.56-2.68,15.56s-.64,7-1.93,8.57-2.57,11.53,6.54,12.8,13.08-4.84,13.08-4.84l-.32-27.7h0a4,4,0,0,0,.47-.76v-.06c.06-.14.13-.27.19-.43s0-.13.08-.2.09-.22.13-.34a.56.56,0,0,1,0-.12,18.2,18.2,0,0,0,.77-8.25s0-.09,0-.14v-.43a1.281,1.281,0,0,0,0-.19,1.931,1.931,0,0,1,0-.24v-.17a1.815,1.815,0,0,1,.06-.56.37.37,0,0,1,0-.11v-.33a.77.77,0,0,0,0-.15,2.407,2.407,0,0,1,.07-.35v-.08c.08-.41.19-.82.3-1.25v-.09l.12-.42h0c.14-.45.29-.89.44-1.33v-.09l.15-.41v-.05c.15-.42.31-.83.47-1.22v-.11l.15-.35v-.1l.33-.78h0l2.53,7.81s1.39,5.82.64,7.19.86,7.1,1.93,7.2l-1,7.2a110.087,110.087,0,0,0-1,12c-.07.45-.14.84-.19,1.14-.69,3.68,1,9.4,1,9.4,8.47,10,18.55.78,18.55.78s1.18-5.3,0-6.35-.64-4.87-.64-4.87.53-9.42.64-16.3-5.63-12.93-5.63-12.93l-.32.29c-1-2.69-2.23-5.84-2-7.25.43-2.43-1.18-28.14-1.18-28.14a153.472,153.472,0,0,0,.37-20.68h0c.14-1.17.27-2.32.4-3.43.65-5.53,1.17-10.26,1.38-12.73h0v-.29c.05-.67.08-1.14.07-1.37,0-.82,0-1.85.08-2.93.21-3,.67-6.28.67-6.28l2.25-13.65s1.71-6.66,4.18-10.37l.29-.47h0c.1-.16.2-.34.3-.53v-.08l.3-.57v-.08c.35-.68.72-1.47,1.1-2.33l.09-.19.29-.66.11-.26.29-.66c0-.09.07-.17.11-.26.11-.27.22-.54.34-.81l.16-.39c.09-.2.17-.4.25-.61l.22-.52.15-.39.24-.59c0-.09.08-.18.11-.27.61-1.53,1.21-3,1.73-4.42h0c.17-.43.33-.84.48-1.24,5.49.34,9.22.65,9.22.65s1.72-12.38,1.18-20.53c-.37-5.56.66-12.56,1.35-16.43.08-.43.15-.81.21-1.15l.15.12c2.69,2.11,4.61-4.87,4.61-4.87s-.72-6.53-1.69-14.42a7.105,7.105,0,0,0-.1-.79,41.514,41.514,0,0,0,4.69.72s.86-.08,2-.23a56.82,56.82,0,0,0,10.18,4.56l5.68-10.58a43.143,43.143,0,0,1,3.75-6.24c1.72-2.12,7.83-8.89,7.72-10.16s2-8.57,4.18-11.85S300.12,477,300,476.46Zm-23.8,8c-2.25.95-4.4,6.24-4.5,7.83s-2.47,8.57-4.94,9.42c-2.26.78-6.6,4.76-7.29,5.4-.71.07-1.51.16-2.35.3-.94-6.68-1.87-12.2-2.47-13.32-1.71-3.18,1.89-13.33,1.89-13.33s.36-10.26,2.61-12.7,1.72-8.57,1.72-8.57.53-2.54.75-3.7,3.19,0,3.21,0h0s5.79,3.17,6.65,7.93,7.18,13,7.18,13-1,2.85,0,4.34-.2,2.49-2.45,3.44Z" transform="translate(-290.58 -71.2)" fill="url(#c)"/><path d="M84.55,260.87a17.29,17.29,0,0,1,17.32-8.13V265.1H94.4l-5.92-1.53Z" transform="translate(-254.98 60)" fill="#4c4981"/><path d="M84.55,260.87a17.29,17.29,0,0,1,17.32-8.13V265.1H94.4l-5.92-1.53Z" transform="translate(-254.98 60)" opacity="0.1"/><path d="M102.4,256.01l-9.19,6.45s-.08-1.3-.31-3.06c-.46-3.33-1.49-8.33-3.71-9.3-3.38-1.48-41-15.63-27.66-20.38s33.79,10.83,33.79,10.83,1.06.36,2.74,3.85c.89,1.83,2,4.95,2.94,7.49C101.81,254.19,102.4,256.01,102.4,256.01Z" transform="translate(-254.98 60)" fill="#ae6e79"/><path d="M175.88,265.94l1.04-.5,2.94,3.35-2.4,5.12-4.09-1.64.95-4.09Z" transform="translate(-254.98 60)" fill="#4c4981"/><path d="M161.96,565.87s-2.64-.31-3.7,3.8-2.64,15.53-2.64,15.53-.63,7-1.9,8.55-2.53,11.51,6.44,12.78,12.89-4.83,12.89-4.83l-.32-27.7Z" transform="translate(-254.98 60)" fill="#444053"/><path d="M193.27,567.12s5.65,6,5.55,12.9-.64,16.27-.64,16.27-.52,3.8.64,4.86,0,6.33,0,6.33-9.93,9.22-18.27-.77c0,0-1.63-5.71-1-9.39s2.53-20.25,2.53-20.25Z" transform="translate(-254.98 60)" fill="#444053"/><path d="M207.27,440.8s-5.71,16-8.14,19.64-4.11,10.36-4.11,10.36l-2.22,13.63a74.748,74.748,0,0,0-.74,9.19c.1,3.06-5.49,47.73-5.49,47.73l-8.87,11.3s-3.91,7.92-3.28,11.2-.42,8.55-1.69,10.13c0,0-.21,10.35-.53,12.68s1.17,8.87,0,10-16.68.63-17.11-1.27S157,584.3,157,584.3l1.37-8.87s2.74-4.86,2.11-6.44,1.16-5.28,1.27-5.6,3-5.49,2.43-7.49,3.27-44.57,3.27-44.57l10.88-76.36Z" transform="translate(-254.98 60)" fill="#ae6e79"/><path d="M207.27,440.8s-.86,2.4-2.06,5.56c-1.88,5-4.59,11.82-6.08,14.08-2.43,3.7-4.12,10.35-4.12,10.35l-2.21,13.63a74.728,74.728,0,0,0-.74,9.18c0,1.21-.81,8.93-1.85,17.81-1.6,13.59-3.64,29.93-3.64,29.93l-8.88,11.3s-.45.91-1,2.23c-1.11,2.59-2.68,6.8-2.26,9,.63,3.28-.42,8.56-1.69,10.14,0,0-.21,10.36-.53,12.67s1.17,8.88,0,10-16.68.64-17.11-1.27,1.9-11.08,1.9-11.08l1.38-8.88s2.74-4.86,2.11-6.44,1.16-5.28,1.27-5.6,3-5.49,2.43-7.5c-.41-1.53,1.7-26.54,2.72-38.4.33-3.74.55-6.16.55-6.16l9.36-65.69.75-5.3.77-5.37Z" transform="translate(-254.98 60)" opacity="0.1"/><path d="M197.76,599.67c.1,1.16-14.89,2.85-17,1.58s0-17,0-17l1-7.18c-1.06-.11-2.64-5.81-1.9-7.19s-.64-7.18-.64-7.18l-2.49-7.8-1.52-4.76c-2.46-5.45-6-21-8.26-32.6-1.4-7.29-2.29-13-2.09-13.77.53-1.9-.85-15.73-.85-15.73s-1.68-14-4-18.48c-1.54-2.94-4.55-14-6.42-21.09-.95-3.65-1.61-6.27-1.61-6.27s16-1.34,25.64-1.81c4.46-.21,7.58-.24,7.21.13s-.45,2.3-.43,5.09c0,7.25,1.05,20,2.12,23.42,1.48,4.75,3,19,2.32,20.38s-.42,10.56-.42,10.56a47.43,47.43,0,0,1,1.85,11.47,154.792,154.792,0,0,1-.37,20.64s1.59,25.66,1.16,28.09,3.38,10,3.38,11.51.96,11.51.96,11.51S197.66,598.51,197.76,599.67Z" transform="translate(-254.98 60)" fill="#ae6e79"/><path d="M206.1,291.18l-1.82,2-1.18,1.27-6.92,7.35-17.85,2-9.48-2.54-2.35-.62s0-4.77.43-10.49c.6-7.33,2.05-16.24,5.49-18.66a13.64,13.64,0,0,0,4-5.09,28.491,28.491,0,0,0,1.73-4.27c.07-.19.12-.37.18-.55a46.79,46.79,0,0,0,1.68-7.84s2.28-1.26,5.44-2.73c8.27-3.86,22.55-9.18,17.58,2.73a44.909,44.909,0,0,0-1.86,5.36c-.08.26-.15.53-.21.79-1.66,6.64-.56,10.66.68,12.88h0a9,9,0,0,0,.72,1.09,5.5,5.5,0,0,0,1.2,1.22l2.06,13.05.17,1.08Z" transform="translate(-254.98 60)" fill="#ae6e79"/><path d="M203.04,254.43c-.94,2.26.46-1.85,0,0-3.76,2.68-12.63,10.3-17.62,10.3-3.36,0-4.37-.61-7.26-1.91a46.9,46.9,0,0,0,1.86-8.39S209.9,237.95,203.04,254.43Z" transform="translate(-254.98 60)" opacity="0.1"/><path d="M213.92,342.61l-3.27,8.56s-2.68.12-6.84.25c-14,.45-45,1-46.39-2.58a8.67,8.67,0,0,1-.48-2.84c-.19-5.5,2.38-13.95,2.38-13.95s1.48-16.9,1.48-17.63-1.27-12.62-1.27-12.62l2.53-9.5,7.08-5s3.17,4.86,5.07,5.28,4.44,2.75,4.44,2.75,6.22,3.8,8.23,1.68,17.64-11.4,17.64-11.4l8.24,9.08Z" transform="translate(-254.98 60)" opacity="0.1"/><path d="M213.92,343.88l-3.27,8.56s-2.68.12-6.84.24h-.41l-6.07.16c-11.16.25-26.55.32-34.58-.85-3-.44-5-1-5.33-1.9a7,7,0,0,1-.38-1.57,12.576,12.576,0,0,1-.1-1.27c-.19-5.5,2.38-14,2.38-14s1.48-16.9,1.48-17.64-1.27-12.57-1.27-12.57l2.53-9.5,4.87-3.41,2.21-1.55a31.921,31.921,0,0,0,2.43,3.19,6.36,6.36,0,0,0,2.64,2.08c1.9.43,4.44,2.75,4.44,2.75s6.22,3.81,8.23,1.69c1.54-1.62,11-7.43,15.42-10.08l2.22-1.33,1.11,1.23,7.13,7.86Z" transform="translate(-254.98 60)" fill="#fff"/><path d="M102.4,256.01l-9.19,6.45s-.08-1.3-.31-3.06c4.54-1.91,7.3-6.15,8.1-7.51C101.81,254.19,102.4,256.01,102.4,256.01Z" transform="translate(-254.98 60)" opacity="0.1"/><path d="M134.71,277.87l-2-.52s-3.28,3.48-5.18,3.9-5.91,3.07-5.91,3.07l-4.65,3.69s-3.49.53-2.43-1.9-1.9-5.49-1.9-5.49-5.91-12.15-5.91-14.68-4.86-13.2-4.86-13.2-6.13,11.93-17.32,8.13c0,0,8.13,18.27,8.34,22.81s5.6,17.22,5.6,17.22,2,9.4,12.88,8.87c0,0,15,2.79,18.27,0s6.23-5,7.82-5.3a6.19,6.19,0,0,0,2.95-2.11V289.8Z" transform="translate(-254.98 60)" fill="#3f3d56"/><path d="M115.91,289.8s2.64,9.82,1,10.88Z" transform="translate(-254.98 60)" opacity="0.1"/><path d="M203.81,352.68c-14,.45-45,1-46.39-2.57a8.67,8.67,0,0,1-.48-2.84l45.89,2.42Z" transform="translate(-254.98 60)" opacity="0.1"/><path d="M207.27,440.8s-.86,2.4-2.05,5.56c-5.83-.36-13.55-.73-20.88-.78-2.6,0-5.14,0-7.53.08a56.409,56.409,0,0,0-12.31,1.37,32.48,32.48,0,0,1-11,1.41c-.95-3.65-1.61-6.27-1.61-6.27s16-1.34,25.64-1.81l.77-5.37Z" transform="translate(-254.98 60)" opacity="0.1"/><path d="M236.73,389.5l.32,3.38s-17-5.54-16.16-12.35,0-6,0-6l13.68,1.16Z" transform="translate(-254.98 60)" fill="#4c4981"/><path d="M236.73,389.5l.32,3.38s-17-5.54-16.16-12.35,0-6,0-6l13.68,1.16Z" transform="translate(-254.98 60)" opacity="0.1"/><path d="M127.27,292.53a15.17,15.17,0,0,0,6,3.12,3.9,3.9,0,0,1-1.77-.83c-1.22-.87-2.38-1.81-3.55-2.73-.94-.74-2.13-2-3.3-2.27a18.211,18.211,0,0,0,2.62,2.71Z" transform="translate(-254.98 60)" opacity="0.1"/><path d="M127.53,296.98a7.35,7.35,0,0,1,1.31,2.09,8.4,8.4,0,0,1,.38,2.7,8.52,8.52,0,0,1-.47,3.83l-2.77-6.57c-.47-1.12-1-2.24-1.52-3.32-.25-.46-1.82-2.36-1.64-2.76C123.34,291.8,127.02,296.35,127.53,296.98Z" transform="translate(-254.98 60)" opacity="0.1"/><path d="M203.67,333.42a8.84,8.84,0,0,0,5-2.31c-2.81.35-5.46,1.45-8.23,2a12.23,12.23,0,0,1-7.67-.7C195.92,333.99,200.25,334.04,203.67,333.42Z" transform="translate(-254.98 60)" opacity="0.1"/><path d="M195.74,314.09a1.89,1.89,0,0,1-1.43-.36q-3.16-1.8-6.24-3.78a37.85,37.85,0,0,1-6.1-4.22C186.16,309.52,190.06,312.72,195.74,314.09Z" transform="translate(-254.98 60)" opacity="0.1"/><path d="M201.6,336.49a13.42,13.42,0,0,0,3.29-.26,4.45,4.45,0,0,0,2.71-1.78,1.53,1.53,0,0,0-1.15.18,19.42,19.42,0,0,1-10.6,1.27C197.56,336.63,199.77,336.48,201.6,336.49Z" transform="translate(-254.98 60)" opacity="0.1"/><path d="M173.53,401.14a30.654,30.654,0,0,1,3.23.84c4.1,1,8.36-.38,12.48-1.32a57.73,57.73,0,0,1,15.11-1.4c-.91,0-2.35.8-3.24,1.07-1.17.35-2.35.67-3.53,1a71.009,71.009,0,0,1-7.06,1.38,72.306,72.306,0,0,1-14.48.63c-2.21-.12-6,.11-7.94-1a8.78,8.78,0,0,1,5.43-1.2Z" transform="translate(-254.98 60)" opacity="0.1"/><path d="M175.06,270.89s.21,9.73-1.38,14.16c-.49,1.38-1.27,3.93-2.11,6.79-.93,3.17-1.94,6.72-2.72,9.47s-1.29,4.65-1.29,4.65-3.57,29.06-4.5,42.9v.72c-.05.78-.14,1.59-.26,2.43-2.06,13.75-13.92,34.95-17.9,36.65a12,12,0,0,0-3.35,2.3c0-5.85.29-10.28,1-11.17,2.32-2.86,12.25-31.37,12.25-31.37l2.26.12a12.582,12.582,0,0,1-.1-1.27c-.19-5.5,2.38-14,2.38-14s1.48-16.9,1.48-17.64-1.27-12.57-1.27-12.57l2.53-9.5,4.87-3.41c.6-7.33,2.05-16.24,5.49-18.66a13.64,13.64,0,0,0,4-5.09c.69.09-.56-.51-.56-.51Z" transform="translate(-254.98 60)" opacity="0.1"/><path d="M199.523,316.395l-21.541-133.2c-.756-4.673-1.973-12.321-2.712-17.049l-.054-.341c-.749-4.791-2.3-12.357-3.447-16.867l-7.248-28.391a52.971,52.971,0,0,1-1.008-15.6l4.539-40.666.536,31.66c.086,5.058,1.994-77.44-4.067-65.982-3.575,6.759-19.191,14.922-25.593,14.922-6.992,0-12.373-3.634-15.994-10.8-5.751-11.383-4.264-12.289-4.258-12.454.1-2.433-11.35-3.326-12.5,1.334C99.452,50.185,109.267,96,109.8,64.277l4.54,40.666a52.971,52.971,0,0,1-1.008,15.6l-7.248,28.391c-1.151,4.51-2.7,12.076-3.449,16.866l-.156.993c-.734,4.688-1.952,12.337-2.713,17.05L78.334,316.395a15.035,15.035,0,0,0,.6,7.761c.823,2.025,2.122,3.14,3.658,3.14,2.39,0,6.242,1.867,8.413,4.075l4.452,4.53a6.553,6.553,0,0,0,9.442,0l4.451-4.53a5.311,5.311,0,0,1,7.489,0l4.451,4.53a6.554,6.554,0,0,0,9.442,0l4.451-4.53a5.31,5.31,0,0,1,7.488,0l4.452,4.53a6.553,6.553,0,0,0,9.442,0l4.451-4.53a5.311,5.311,0,0,1,7.489,0l4.451,4.53a6.554,6.554,0,0,0,9.442,0l4.451-4.53c2.171-2.209,6.024-4.075,8.414-4.075,1.537,0,2.836-1.115,3.659-3.14A15.03,15.03,0,0,0,199.523,316.395Z" transform="translate(-207.427 310)" fill="#65617d"/><path d="M219.62,402.18l-1.79,3.8s-.25,1.13-.57,2.93a1.66,1.66,0,0,1-.91-.39c-2.64-2.12-18.17-18.06-18.9-32.22-.55-10.44-.29-19.43-.12-23.44.06-1.26.1-2,.11-2.19,0,0,12-14.58,10.66-19.75s-4.54-32.85-4.54-32.85l-.47-3.63-.8-6.13-1.89-14.86,2,.46a5.5,5.5,0,0,0,1.2,1.22l2.06,13.05,7.13,7.86,1.16,47.84-3.27,8.56s-2.68.12-6.84.24h-.41Z" transform="translate(-254.98 60)" opacity="0.1"/><path d="M220.49,388.62c-4.34-.84-10.73-2.85-10.59-7.25.14-4.13,5.1-5.61,8.85-6.14C219.4,379.54,219.95,384.29,220.49,388.62Z" transform="translate(-254.98 60)" opacity="0.1"/><path d="M233.88,386.44c-.17.37-.89.69-1.84,1a48.257,48.257,0,0,1-7,1.14s-14.68-1.16-14.47-7.81c.15-4.78,6.78-6,10.51-6.33,1.46-.13,2.48-.11,2.48-.11S234.52,385.07,233.88,386.44Z" transform="translate(-254.98 60)" fill="#ae6e79"/><path d="M233.88,386.44c-.17.37-.89.69-1.84,1-3.83-5.12-9.17-11.69-11.78-12.27,0,0,.3-.29.79-.73,1.46-.13,2.48-.11,2.48-.11S234.52,385.07,233.88,386.44Z" transform="translate(-254.98 60)" opacity="0.1"/><path d="M230.18,295.3l4.33.63a74.437,74.437,0,0,0,5.18,7.92,8.61,8.61,0,0,1,1.9,5.07s6.34,9.4,8.34,10.46,5.07,8.24,5.07,8.24,5,3.27,5,7a61,61,0,0,0,.95,9.18c.1.53-.74,7.08-2.86,10.35s-4.22,10.56-4.11,11.83-5.92,8-7.61,10.14a42.673,42.673,0,0,0-3.69,6.23l-5.6,10.56s-11.83-17.42-16.16-18.37c0,0,4.86-4.65,7.29-5.49s4.75-7.82,4.86-9.4,2.21-6.87,4.43-7.82,3.38-1.9,2.43-3.38,0-4.33,0-4.33-6.23-8.24-7.08-13-6.54-7.92-6.54-7.92l-3.28-8Z" transform="translate(-254.98 60)" fill="#3f3d56"/><path d="M245.89,334.72a13.69,13.69,0,0,1,8.53-3.23c-2,.35-4.12.78-5.58,2.18a12.741,12.741,0,0,0-1.54,2c-.51.72-4.58,5.9-5.23,5.09C241.1,339.52,245.07,335.42,245.89,334.72Z" transform="translate(-254.98 60)" opacity="0.1"/><path d="M236.33,329.72a3.64,3.64,0,0,0,3-2.13,12,12,0,0,0,.94-3.75,55.579,55.579,0,0,1,1.31-6.41,4.08,4.08,0,0,0,.21-1.34,3.79,3.79,0,0,0-.39-1.29,9.2,9.2,0,0,0-.92-1.92c-.79.89-1,2.88-1.33,4q-.58,2.16-1.11,4.32C237.87,321.96,236.4,329.72,236.33,329.72Z" transform="translate(-254.98 60)" opacity="0.1"/><path d="M153.08,394.33a15.506,15.506,0,0,1,1.89.51c3.64,1.05,7.52.13,11.19-.78a6.625,6.625,0,0,1-4.25,2.36,20,20,0,0,1-8.29.3c-.87-.17-3-.48-3.48-1.38C149.48,394.01,152.27,394.2,153.08,394.33Z" transform="translate(-243.98 31)" opacity="0.1"/><path d="M171.58,389.8c-1.47-.06-3.36.82-4.87,1a32.068,32.068,0,0,1-5.09.21,28.639,28.639,0,0,1-9.83-2C158.4,389.34,164.99,389.54,171.58,389.8Z" transform="translate(-245.98 33)" opacity="0.1"/><path d="M181.59,385.52a33.894,33.894,0,0,1-6.75,1.33,41.435,41.435,0,0,1-5.34-.1l-8.65-.55-4.33-.28c-.51,0-2.6,0-1.57-1,.52-.49,3.41-.18,4.15-.2,1.44,0,2.87-.07,4.3-.08,2.86,0,5.73,0,8.59.18Q176.81,385.01,181.59,385.52Z" transform="translate(-247.98 34)" opacity="0.1"/><g transform="translate(176.753 250)" opacity="0.2"><path d="M85.379,3.272A3.129,3.129,0,0,1,88.342,0a3.019,3.019,0,0,1,2.843,2.4c.04,0,.078-.013.119-.013a2.352,2.352,0,0,1,2.227,2.46,2.674,2.674,0,0,1-.169.935h0a1.458,1.458,0,0,1,1.381,1.525,1.387,1.387,0,1,1-2.761,0c0-.046.009-.088.012-.133a2.018,2.018,0,0,1-.691.133,2.164,2.164,0,0,1-1.8-1.025,2.713,2.713,0,0,1-1.16.261A3.129,3.129,0,0,1,85.379,3.272Zm1.345,16.211H82.666a1.361,1.361,0,0,0-1.289,1.424V30.44L94,23.763l12.62,6.677V20.908a1.361,1.361,0,0,0-1.289-1.424H101.27m0-1.424v-.873a1.361,1.361,0,0,0-1.289-1.424H96.85l-.56-5.666H91.7l-.56,5.666H88.013a1.361,1.361,0,0,0-1.289,1.424v.873ZM94,25.342l-18.75,9.921L80.8,53.154A20.959,20.959,0,0,1,90.085,50.6c5.456,0,9.842,2.871,15.6,4.334h.957l6.1-19.667Z" transform="translate(0)" fill="#3c74f3"/></g><g transform="matrix(0.891, -0.454, 0.454, 0.891, -8.207, 537.863)" opacity="0.3"><path d="M108.738,423.475a3.589,3.589,0,0,1-2.334-.812,5.042,5.042,0,0,0-6.111,0,3.761,3.761,0,0,1-4.668,0,5.041,5.041,0,0,0-6.111,0,3.76,3.76,0,0,1-4.668,0,5.041,5.041,0,0,0-6.111,0,3.76,3.76,0,0,1-4.668,0,4.8,4.8,0,0,0-3.055-1.031.551.551,0,1,0,0,1.1,3.589,3.589,0,0,1,2.334.812,5.041,5.041,0,0,0,6.111,0,3.76,3.76,0,0,1,4.668,0,5.041,5.041,0,0,0,6.111,0,3.76,3.76,0,0,1,4.668,0,5.042,5.042,0,0,0,6.111,0,3.761,3.761,0,0,1,4.668,0,4.8,4.8,0,0,0,3.056,1.031.551.551,0,1,0,0-1.1Z" transform="translate(-31.058 -330.212)" fill="#3c74f3"/><path d="M108.738,364.652a3.589,3.589,0,0,1-2.334-.812,5.042,5.042,0,0,0-6.111,0,3.76,3.76,0,0,1-4.668,0,5.041,5.041,0,0,0-6.111,0,3.76,3.76,0,0,1-4.668,0,5.041,5.041,0,0,0-6.111,0,3.76,3.76,0,0,1-4.668,0,4.8,4.8,0,0,0-3.055-1.031.551.551,0,1,0,0,1.1,3.589,3.589,0,0,1,2.334.812,5.041,5.041,0,0,0,6.111,0,3.76,3.76,0,0,1,4.668,0,5.041,5.041,0,0,0,6.111,0,3.76,3.76,0,0,1,4.668,0,5.042,5.042,0,0,0,6.111,0,3.761,3.761,0,0,1,4.668,0,4.8,4.8,0,0,0,3.056,1.031.551.551,0,1,0,0-1.1Z" transform="translate(-31.058 -276.765)" fill="#3c74f3"/><path d="M124.55,179.676h25.263a.626.626,0,0,0,.424-.156.52.52,0,0,0,.177-.385c0-6.656-5.936-12.067-13.233-12.067s-13.233,5.409-13.233,12.065a.521.521,0,0,0,.177.386A.627.627,0,0,0,124.55,179.676Z" transform="translate(-79.232 -98.917)" fill="#3c74f3"/><path d="M251.2,65.938v-7.19a.6.6,0,0,0-1.2,0v7.19a.6.6,0,0,0,1.2,0Z" transform="translate(-192.651)" fill="#3c74f3"/><path d="M146.936,125.85a.558.558,0,0,0-.281.333.507.507,0,0,0,.06.416l1.937,3.06a.634.634,0,0,0,.821.2.523.523,0,0,0,.22-.749l-1.937-3.06A.634.634,0,0,0,146.936,125.85Z" transform="translate(-99.644 -61.4)" fill="#3c74f3"/><path d="M43.857,181.21a.594.594,0,0,0,.584-.415.532.532,0,0,0-.3-.617l-7.363-3.595a.632.632,0,0,0-.814.225.525.525,0,0,0,.246.742l7.363,3.595a.645.645,0,0,0,.283.065Z" transform="translate(0 -107.503)" fill="#3c74f3"/><path d="M55.076,293.548a.577.577,0,0,0-.6-.548H50.6a.551.551,0,1,0,0,1.1h3.874A.577.577,0,0,0,55.076,293.548Z" transform="translate(-12.694 -213.338)" fill="#3c74f3"/><path d="M415.82,293h-3.874a.551.551,0,1,0,0,1.1h3.874a.551.551,0,1,0,0-1.1Z" transform="translate(-337.828 -213.338)" fill="#3c74f3"/><path d="M398.258,166.611l-7.363,4.509a.519.519,0,0,0-.164.761.638.638,0,0,0,.834.15l7.363-4.509a.519.519,0,0,0,.164-.761.638.638,0,0,0-.834-.15Z" transform="translate(-319.187 -98.417)" fill="#3c74f3"/><path d="M329.328,124.373l-1.937,3.06a.523.523,0,0,0,.22.749.634.634,0,0,0,.821-.2l1.937-3.06a.523.523,0,0,0-.22-.749A.634.634,0,0,0,329.328,124.373Z" transform="translate(-262.214 -59.875)" fill="#3c74f3"/></g><g transform="translate(-268.623 231.5)" opacity="0.2"><path d="M64.309,147.15h-.566c-.885-5.3-1.027-10.729-4.092-13.831-3-3.038-6.93-3.978-9.535-6.437v-1.151a.738.738,0,0,0,0-1.317v-.489a.423.423,0,0,0,.1-.274,11.379,11.379,0,0,0-.405-1.422,11.376,11.376,0,0,0-.405,1.422.422.422,0,0,0,.1.274v.489a.738.738,0,0,0,0,1.317v1.151c-2.605,2.459-6.533,3.4-9.535,6.437-3.065,3.1-3.208,8.535-4.092,13.831h-.566l-.973,2.592h30.94Zm-24.356-.1h-1.1v-1.631h1.1Zm3.469,0h-1.1v-1.631h1.1Zm3.469,0h-1.1v-1.631h1.1Zm3.47,0h-1.1v-1.631h1.1Zm3.469,0h-1.1v-1.631h1.1Zm3.469,0H56.2v-1.631h1.1Zm3.47,0h-1.1v-1.631h1.1Z" transform="translate(-6.639 -104.594)" fill="#3c74f3"/><path d="M66,211.432V210.2l-1.308-1.178-1.671,1.505-1.672-1.505L60.038,210.2v1.237H57.91v4.1h1.538v9.817H26.623v4.014H66.585V215.53h1.538v-4.1H66Zm-1.543,13.259H61.581v-4.015h.4V219.1l1.038-1.053,1.038,1.053v1.58h.4v4.015Z" transform="translate(0 -178.861)" fill="#3c74f3"/><path d="M266.87,185.546l-1.306,1.176v2.554l1.306-1.176,1.672,1.505,1.671-1.505,1.308,1.178v-2.555l-1.308-1.178-1.671,1.505Z" transform="translate(-205.526 -158.774)" fill="#3c74f3"/><path d="M259.113,23.08l.9,2.9v1.139l1.306-1.176,1.672,1.505,1.671-1.505,1.308,1.178V25.975l.9-2.895h-.9V11.424l.9-2.895h-2.4V6.005a1.521,1.521,0,0,0-1.18-1.5v-1a.737.737,0,0,0,0-1.317V1.7a.422.422,0,0,0,.1-.274A11.373,11.373,0,0,0,262.994,0a11.383,11.383,0,0,0-.405,1.422.422.422,0,0,0,.1.274v.489a.737.737,0,0,0,0,1.316v1a1.521,1.521,0,0,0-1.18,1.5V8.53h-2.4l.9,2.9V23.08h-.9Zm3.068-10.05h.225v-.894l.588-.6.587.6v.894h.225V15.3h-1.625V13.03Zm0,5.394h.225V17.53l.588-.6.587.6v.894h.225V20.7h-1.625V18.424Z" transform="translate(-199.977 0)" fill="#3c74f3"/></g><g transform="translate(26.667 179)" opacity="0.2"><path d="M54,29h1.977v1.906H54Z" transform="translate(-0.585 -1.216)" fill="#3c74f3"/><path d="M59,37h1.977v1.906H59Z" transform="translate(-0.643 -1.591)" fill="#3c74f3"/><path d="M35,3h1.977V4.906H35Z" transform="translate(-0.363)" fill="#3c74f3"/><path d="M4,36H5.977v1.906H4Z" transform="translate(0 -1.544)" fill="#3c74f3"/><path d="M34.893,39.91l3,2.892a1.014,1.014,0,0,0,1.4,0l4.243-4.092L45.8,40.9a1.014,1.014,0,0,0,1.4,0l2.518-2.429,6.3,18.913H29.075Zm2.753-8.267h9.794l1.593,4.784L46.5,38.874l-2.266-2.186a1.014,1.014,0,0,0-1.4,0L38.591,40.78l-3.018-2.911ZM37.6,11.625a5.98,5.98,0,0,1,3.392,1.035,1.019,1.019,0,0,0,1.025.069.95.95,0,0,0,.534-.847c0-.06,0-.12-.01-.257a5.945,5.945,0,0,1,11.825-.593.963.963,0,0,0,.707.822,5.719,5.719,0,0,1,4.21,6.3,5.865,5.865,0,0,1-5.87,4.91H37.6a6.1,6.1,0,0,1-2.561-.565,15.424,15.424,0,0,0-.549-10.009,5.943,5.943,0,0,1,3.109-.865ZM4,18.3A14.357,14.357,0,0,1,14.239,4.685a15.133,15.133,0,0,1,16.583,5.2A13.889,13.889,0,0,1,30.808,26.7l-2.127-8.623a.982.982,0,0,0-.962-.733H15.86a.982.982,0,0,0-.962.733l-3.155,12.78A14.231,14.231,0,0,1,4,18.3ZM29.289,28.783l-2.558,2.465-3.254-3.139a1.014,1.014,0,0,0-1.4,0L17.836,32.2l-3.548-3.418,2.352-9.532h10.3ZM13.751,30.956l3.387,3.267a1.014,1.014,0,0,0,1.4,0l4.243-4.092,3.254,3.139a1.014,1.014,0,0,0,1.4,0l2.4-2.312,2.538,10.3L27,57.379H7.228Z" transform="translate(0 -0.046)" fill="#3c74f3"/></g><g transform="translate(71.072 362)" opacity="0.25"><path d="M44.4,158.84c-2.34.938-4.508-2-5.006-6.645l-.072.027c.129,4.772-1.536,9.231-3.871,10.167-2.361.947-4.547-2.057-5.019-6.771l-2.27.867-2.27-.867c-.471,4.714-2.657,7.718-5.019,6.771-2.335-.936-4-5.395-3.87-10.167l-.072-.028c-.5,4.641-2.665,7.584-5.006,6.645-2.314-.928-3.97-5.314-3.874-10.037l-1.044-.4v17.488a.412.412,0,0,0,.248.391l20.791,7.942a.324.324,0,0,0,.232,0l20.791-7.942a.412.412,0,0,0,.247-.391V148.4l-1.044.4C48.371,153.526,46.715,157.912,44.4,158.84Z" transform="translate(-0.07 -123.913)" fill="#3c74f3"/><path d="M22.124,157.525c1.486.6,2.9-.4,3.849-2.413l-7.142-2.728C19.474,154.957,20.665,156.941,22.124,157.525Z" transform="translate(-10.172 -127.237)" fill="#3c74f3"/><path d="M83.448,178.3c1.513.607,2.953-.439,3.9-2.524l-7.229-2.761C80.753,175.652,81.962,177.7,83.448,178.3Z" transform="translate(-62.549 -144.458)" fill="#3c74f3"/><path d="M240.9,157.525c1.458-.585,2.65-2.569,3.293-5.141l-7.142,2.728C238,157.123,239.417,158.121,240.9,157.525Z" transform="translate(-196.665 -127.236)" fill="#3c74f3"/><path d="M179.064,178.3c1.486-.6,2.694-2.643,3.329-5.286l-7.229,2.761C176.112,177.856,177.551,178.9,179.064,178.3Z" transform="translate(-143.774 -144.458)" fill="#3c74f3"/><path d="M28.095,26.515l21.155-8.08V9.09a.466.466,0,0,0,.012-.1.414.414,0,0,0-.239-.393L28.219.025a.323.323,0,0,0-.248,0L7.167,8.6A.414.414,0,0,0,6.928,9a.468.468,0,0,0,.012.1v9.345Zm0-23.351L42,8.9,28.095,14.2,14.191,8.9Z" transform="translate(0)" fill="#3c74f3"/></g><path d="M70.131,49.916S54.982,67.36,57.381,72.381c-2.243,1.632,10,9.4,10,12.785,0,12.113.808,9.18,10.876,9.18H93.906c12.936,0,23.641-6.4,23.641-21.965l-8.167-38.215Z" transform="translate(-155.881 265.334)" fill="#65617d"/><path d="M176.92,265.44a6.32,6.32,0,0,0-5.35.61c-2.43,1.68-7.18,1.58-8.45,1.26s-14.47-2-15.52-1.58-3.17-1.48-4.54,1.05-2,3.91-3.38,4.55-3.81,2.64-3.49,3.06-3.48,3-3.48,3l7.7,25s-5,31.68-7.39,34.42-24,38.34-16.26,44.68a155.941,155.941,0,0,0,19.32,13c.85.42,3.91-5.28,8.14-7.08s17.32-25.61,18.18-39.09,4.54-43.62,4.54-43.62,4.54-16.48,6.13-20.91,1.33-14.17,1.33-14.17Z" transform="translate(-254.98 60)" fill="#3f3d56"/><path d="M226.28,323.18s-3-1.16-3.17,0-.74,3.69-.74,3.69.52,6.13-1.69,8.56-2.57,12.67-2.57,12.67-3.55,10.14-1.87,13.31c.61,1.15,1.56,6.92,2.51,13.82.6,4.31,1.2,9.06,1.74,13.39,1,7.89,1.67,14.4,1.67,14.4s-1.9,7-4.54,4.86-18.17-18.08-18.91-32.21c-.52-9.95-.31-18.58-.14-22.84.08-1.81.14-2.83.14-2.83s12-14.57,10.67-19.74-4.54-32.85-4.54-32.85l-.56-4.27-.59-4.6-.13-1-1.91-14.74h0c.34.07,12.19,2.75,13.75,4.31s11.19,3.8,11.19,3.8a8.47,8.47,0,0,1,6,6.16c.09.29.16.6.23.92,1.27,6.13.85,6.86,1.7,7.92S226.28,323.18,226.28,323.18Z" transform="translate(-254.98 60)" fill="#3f3d56"/><g transform="translate(284 451.348)" opacity="0.1"><path d="M50.45,10.026C52.667,7.3,53.994,4.465,54,2.442A2.631,2.631,0,0,0,53.583.893,1.254,1.254,0,0,0,53.337.6,1.41,1.41,0,0,0,53.05.4,3.208,3.208,0,0,0,51.342,0c-2.2,0-5.277,1.222-8.245,3.264a68.87,68.87,0,0,0-8.119,7.194q-.845.819-1.783,1.722l-6.433-1.773.019-.017a1.252,1.252,0,0,0,0-1.868l-1.162-1.07a1.513,1.513,0,0,0-1.022-.391,1.486,1.486,0,0,0-1.019.388l-1.738,1.6-.92-.253a1.227,1.227,0,0,0,.3-.805A1.251,1.251,0,0,0,20.8,7.05L19.633,5.977a1.512,1.512,0,0,0-1.022-.387,1.475,1.475,0,0,0-1.013.388L16,7.444l-6.541-1.8a1.77,1.77,0,0,0-.467-.061,1.815,1.815,0,0,0-1.21.45l-2.3,2.115a1.172,1.172,0,0,0,.3,1.96l13.754,7.065a2.392,2.392,0,0,1,.334.233l3.921,3.6C20.124,24.562,16.856,28,14.31,31c-.238.278-.463.549-.684.818L2.985,30.926a1.565,1.565,0,0,0-.184-.01,2.055,2.055,0,0,0-1.318.5L.411,32.4a1.179,1.179,0,0,0-.41.871A1.2,1.2,0,0,0,.774,34.38L8.26,37.649a1.754,1.754,0,0,1,.287.189l.621.567a3.886,3.886,0,0,0-.3,1.323A1.662,1.662,0,0,0,9.391,41l.027.021.007.005A1.991,1.991,0,0,0,10.8,41.5a4.933,4.933,0,0,0,1.427-.273l.631.579a1.574,1.574,0,0,1,.2.259L16.6,48.93a1.33,1.33,0,0,0,1.193.722H17.8a1.391,1.391,0,0,0,.946-.367l1.1-1.013a1.725,1.725,0,0,0,.525-1.209c0-.056,0-.1,0-.123L19.4,37.121c.291-.2.586-.409.89-.626,3.26-2.345,7-5.352,10.86-8.719l3.924,3.611a1.959,1.959,0,0,1,.255.309L43,44.32a1.353,1.353,0,0,0,1.185.66,1.4,1.4,0,0,0,.956-.37l2.316-2.128a1.546,1.546,0,0,0,.474-1.11,1.407,1.407,0,0,0-.063-.415L45.907,34.94,47.5,33.471a1.252,1.252,0,0,0,0-1.87l-1.169-1.074a1.537,1.537,0,0,0-1.9-.109l-.274-.843,1.74-1.6a1.283,1.283,0,0,0,.42-.938,1.257,1.257,0,0,0-.42-.933l-1.164-1.07a1.531,1.531,0,0,0-2.043,0l-.012.01-1.927-5.914c.666-.583,1.3-1.139,1.9-1.662A67.865,67.865,0,0,0,50.45,10.026Z" transform="translate(0 0)" fill="#3c74f3"/></g><g transform="translate(466.118 199.5)" opacity="0.2"><path d="M38.391,41.713v-.035a.119.119,0,0,0,.082-.108v-2.2a.141.141,0,0,0-.151-.129h-1.5l-2.465-7.025a2.174,2.174,0,0,0,1.072-1.8,2.373,2.373,0,0,0-1.8-2.147A169.991,169.991,0,0,1,32.019,9.842a2.3,2.3,0,0,0,.837-1.813V5.272a2.185,2.185,0,0,0-1.449-2.131V.319c0-.175-.238-.319-.527-.319s-.536.144-.536.319V3.158a2.191,2.191,0,0,0-1.41,2.12V8.035a2.309,2.309,0,0,0,.833,1.809,170.849,170.849,0,0,1-1.6,18.405,2.4,2.4,0,0,0-1.895,2.17,2.2,2.2,0,0,0,1.142,1.842L24.969,39.24H23.485a.144.144,0,0,0-.158.129v2.2a.11.11,0,0,0,.063.1v.045l-5.508,8.04h5.505s.563-5.9,7.5-5.971c6.946.067,7.508,5.971,7.508,5.971H43.9Z" transform="translate(0)" fill="#3c74f3"/></g><path d="M.593,11.682A21.586,21.586,0,0,0,21.716,28.676a15.784,15.784,0,0,0,4.053-.433c.606-4.316,8.891-17.094,7.6-20.287C30.266.016,3.788.891,1.374.028A22.228,22.228,0,0,0,.593,11.682Zm0,0" transform="matrix(0.391, 0.921, -0.921, 0.391, -68.471, 279.768)" fill="#ae6e79"/><path d="M.573,14.938a.674.674,0,0,0-.258-.085C1.436,13.73,4.8.436,20.933.43a23.6,23.6,0,0,1,4.312.43A21.649,21.649,0,0,1,38.523,9.486c25.17,35.55-13.988,38.5-13.554,33.667A33,33,0,0,0,25.23,39.1,20.924,20.924,0,0,0,23.939,31.5C20.837,23.561,2.987,15.8.573,14.938Zm0,0" transform="matrix(0.391, 0.921, -0.921, 0.391, -54.433, 274.68)" fill="#65617d"/></g></svg>